<svg xmlns="http://www.w3.org/2000/svg" xmlns:xlink="http://www.w3.org/1999/xlink" width="500" zoomAndPan="magnify" viewBox="0 0 375 374.999991" height="500" preserveAspectRatio="xMidYMid meet" version="1.0"><defs><filter x="0%" y="0%" width="100%" height="100%" id="885eff9267"><feColorMatrix values="0 0 0 0 1 0 0 0 0 1 0 0 0 0 1 0 0 0 1 0" color-interpolation-filters="sRGB"/></filter><mask id="b3020957a8"><g filter="url(#885eff9267)"><rect x="-37.5" width="450" fill="#000000" y="-37.499999" height="449.999989" fill-opacity="0.149"/></g></mask><clipPath id="9ba54d3bf7"><path d="M 0.761719 0.355469 L 282 0.355469 L 282 373.855469 L 0.761719 373.855469 Z M 0.761719 0.355469 " clip-rule="nonzero"/></clipPath><clipPath id="5390225238"><rect x="0" width="284" y="0" height="374"/></clipPath></defs><g mask="url(#b3020957a8)"><g transform="matrix(1, 0, 0, 1, 47, 1)"><g clip-path="url(#5390225238)"><g clip-path="url(#9ba54d3bf7)"><path fill="#000000" d="M 273.628906 118.921875 C 273.628906 147.964844 212.921875 172.484375 141.074219 172.484375 C 69.226562 172.484375 8.523438 147.964844 8.523438 118.921875 L 8.523438 81.804688 C 27.277344 105.863281 78.820312 122.730469 141.074219 122.730469 C 203.328125 122.730469 254.859375 105.878906 273.628906 81.820312 Z M 273.628906 183.472656 C 273.628906 212.519531 212.921875 237.039062 141.074219 237.039062 C 69.226562 237.039062 8.523438 212.519531 8.523438 183.472656 L 8.523438 139.195312 C 27.277344 163.253906 78.820312 180.109375 141.074219 180.109375 C 203.328125 180.109375 254.859375 163.253906 273.628906 139.195312 Z M 273.628906 246.910156 C 273.628906 275.953125 212.921875 300.472656 141.074219 300.472656 C 69.226562 300.472656 8.523438 275.953125 8.523438 246.910156 L 8.523438 203.75 C 27.277344 227.808594 78.820312 244.660156 141.074219 244.660156 C 203.328125 244.660156 254.859375 227.808594 273.628906 203.75 Z M 273.628906 312.667969 C 273.628906 341.699219 212.921875 366.234375 141.074219 366.234375 C 69.226562 366.234375 8.523438 341.699219 8.523438 312.667969 L 8.523438 267.1875 C 27.277344 291.242188 78.820312 308.097656 141.074219 308.097656 C 203.328125 308.097656 254.859375 291.242188 273.628906 267.1875 Z M 141.074219 7.976562 C 212.878906 7.976562 273.539062 32.46875 273.628906 61.484375 L 273.628906 61.601562 C 273.539062 90.617188 212.878906 115.109375 141.074219 115.109375 C 69.226562 115.109375 8.523438 90.589844 8.523438 61.542969 C 8.523438 32.511719 69.226562 7.976562 141.074219 7.976562 Z M 281.253906 61.542969 C 281.253906 61.527344 281.253906 61.5 281.253906 61.484375 L 281.253906 54.335938 C 281.253906 52.894531 280.421875 51.6875 279.242188 51.046875 C 268.132812 21.914062 211.449219 0.355469 141.074219 0.355469 C 62.480469 0.355469 0.894531 27.226562 0.894531 61.542969 C 0.894531 62.125 0.953125 62.691406 1 63.253906 C 0.96875 63.417969 0.894531 63.582031 0.894531 63.746094 L 0.894531 312.667969 C 0.894531 346.984375 62.464844 373.855469 141.074219 373.855469 C 219.671875 373.855469 281.253906 346.984375 281.253906 312.667969 L 281.253906 61.617188 C 281.253906 61.589844 281.253906 61.574219 281.253906 61.542969 " fill-opacity="1" fill-rule="nonzero"/></g></g></g></g></svg>