<svg xmlns="http://www.w3.org/2000/svg" xmlns:xlink="http://www.w3.org/1999/xlink" width="500" zoomAndPan="magnify" viewBox="0 0 375 374.999991" height="500" preserveAspectRatio="xMidYMid meet" version="1.0"><defs><clipPath id="b2103bfd52"><path d="M 4.519531 0 L 370.355469 0 L 370.355469 375 L 4.519531 375 Z M 4.519531 0 " clip-rule="nonzero"/></clipPath></defs><g clip-path="url(#b2103bfd52)"><path fill="#ffffff" d="M 354.132812 330.78125 C 354.132812 336.4375 352.445312 341.703125 349.554688 346.109375 L 346.511719 343.664062 L 238.90625 257.011719 L 353.136719 166.425781 C 353.792969 168.808594 354.132812 171.292969 354.132812 173.820312 Z M 326.140625 358.792969 L 48.734375 358.792969 C 45.238281 358.792969 41.898438 358.140625 38.8125 356.964844 L 41.917969 354.554688 L 153.914062 267.558594 L 179.832031 247.4375 C 185.523438 243.019531 195.796875 243.101562 201.390625 247.621094 L 208.773438 253.578125 C 208.816406 253.609375 208.859375 253.644531 208.898438 253.671875 L 215.183594 258.730469 L 225.335938 266.898438 L 226.015625 267.449219 L 226.179688 267.585938 C 226.21875 267.617188 226.257812 267.648438 226.296875 267.683594 L 334.183594 354.554688 L 336.347656 356.300781 L 336.808594 356.671875 C 333.515625 358.035156 329.917969 358.792969 326.140625 358.792969 Z M 25.671875 346.640625 C 22.5625 342.128906 20.738281 336.664062 20.738281 330.78125 L 20.738281 173.820312 C 20.738281 172.019531 20.957031 170.101562 21.316406 168.199219 L 137.140625 260.046875 L 28.042969 344.796875 Z M 50.289062 134.769531 L 50.289062 143.621094 C 50.289062 143.867188 50.300781 144.109375 50.324219 144.355469 L 50.324219 150.472656 C 50.324219 154.949219 53.953125 158.582031 58.429688 158.582031 C 62.820312 158.582031 66.386719 155.089844 66.527344 150.730469 C 66.527344 150.644531 66.539062 150.5625 66.539062 150.472656 L 66.539062 143.59375 C 66.539062 143.34375 66.527344 143.105469 66.503906 142.859375 L 66.503906 118.152344 C 66.527344 117.90625 66.539062 117.664062 66.539062 117.414062 L 66.539062 16.214844 L 241.335938 16.214844 L 241.335938 75.839844 C 241.335938 80.320312 244.96875 83.953125 249.449219 83.953125 L 307.761719 83.953125 L 307.761719 158.660156 C 307.761719 163.140625 311.390625 166.773438 315.867188 166.773438 C 320.347656 166.773438 323.976562 163.140625 323.976562 158.660156 L 323.976562 135.871094 L 343.90625 153.039062 L 225.960938 246.582031 L 219.1875 241.132812 C 219.148438 241.097656 219.109375 241.066406 219.066406 241.03125 L 211.570312 234.996094 C 200.179688 225.792969 181.480469 225.625 169.898438 234.609375 L 150.328125 249.808594 L 28.5 153.191406 C 33.382812 148.269531 42.9375 140.464844 50.289062 134.769531 Z M 257.554688 29.59375 L 295.664062 67.730469 L 257.554688 67.730469 Z M 360.664062 146.253906 C 360.347656 145.855469 359.996094 145.496094 359.613281 145.167969 C 359.613281 145.167969 326.214844 116.488281 323.976562 116.8125 L 323.976562 76.46875 C 323.976562 74.320312 323.121094 72.257812 321.601562 70.738281 L 253.277344 2.371094 C 251.753906 0.851562 249.691406 -0.00390625 247.542969 -0.00390625 L 58.429688 -0.00390625 C 53.953125 -0.00390625 50.324219 3.625 50.324219 8.105469 L 50.324219 115.378906 C 50.300781 115.613281 19.765625 137.523438 13.363281 145.832031 C 8.238281 152.476562 4.519531 164.25 4.519531 173.820312 L 4.519531 330.78125 C 4.519531 355.167969 24.355469 375.011719 48.734375 375.011719 L 326.140625 375.011719 C 350.515625 375.011719 370.351562 355.167969 370.351562 330.78125 L 370.351562 173.820312 C 370.351562 163.878906 366.910156 154.089844 360.664062 146.253906 " fill-opacity="1" fill-rule="nonzero"/></g><path fill="#ffffff" d="M 196.703125 161.328125 C 194.945312 164.757812 184.296875 171.195312 177.773438 171.195312 C 175.125 171.195312 170.15625 169.753906 167.335938 165.804688 C 164.535156 161.894531 164.367188 156.25 166.832031 149.03125 C 173.039062 130.859375 182.683594 122.398438 197.203125 122.398438 C 200.671875 122.398438 204.023438 122.882812 206.949219 123.441406 C 203.230469 139.707031 198.707031 157.425781 196.703125 161.328125 Z M 183.515625 215.867188 C 195.441406 215.867188 207.636719 212.972656 218.773438 207.503906 C 220.519531 206.644531 221.824219 205.15625 222.453125 203.320312 C 223.082031 201.480469 222.953125 199.507812 222.097656 197.761719 C 220.863281 195.253906 218.359375 193.691406 215.5625 193.691406 C 214.460938 193.691406 213.355469 193.949219 212.359375 194.4375 C 203.234375 198.921875 193.320312 201.289062 183.683594 201.289062 C 183.679688 201.289062 183.679688 201.289062 183.679688 201.289062 C 167.09375 201.289062 152.589844 194.445312 143.886719 182.515625 C 135.941406 171.613281 133.476562 157.644531 136.945312 143.175781 C 140.476562 128.460938 149.683594 115.058594 162.867188 105.4375 C 173.699219 97.53125 187.488281 93.179688 201.695312 93.179688 C 206.621094 93.179688 211.539062 93.71875 215.917969 94.734375 C 225.179688 96.882812 232.519531 101.230469 235.066406 106.074219 C 240.890625 117.140625 240.996094 133.414062 235.339844 148.542969 C 231.488281 158.835938 225.359375 166.679688 219.347656 169.011719 C 218.320312 169.410156 217.210938 169.621094 216.144531 169.621094 C 214.796875 169.621094 213.539062 169.285156 212.605469 168.671875 C 211.589844 168.007812 210.941406 167.050781 210.636719 165.761719 C 214.863281 155.128906 221.445312 125.441406 222.765625 119.386719 C 223.179688 117.476562 222.796875 115.441406 221.714844 113.808594 C 220.628906 112.179688 218.898438 111.039062 216.972656 110.683594 C 216.230469 110.546875 215.296875 110.339844 214.21875 110.097656 C 209.917969 109.144531 204.027344 107.839844 197.203125 107.839844 C 186.71875 107.839844 177.613281 111.015625 170.148438 117.273438 C 162.859375 123.378906 157.109375 132.480469 153.066406 144.324219 C 147.996094 159.171875 151.589844 168.804688 155.496094 174.269531 C 161.167969 182.199219 170.769531 185.75 177.773438 185.75 C 184.695312 185.75 193.71875 182.390625 200.710938 177.429688 C 201.851562 178.742188 203.175781 179.898438 204.648438 180.859375 C 207.984375 183.035156 211.949219 184.1875 216.125 184.1875 C 219.003906 184.1875 221.859375 183.652344 224.613281 182.582031 C 234.667969 178.675781 243.546875 168.125 248.964844 153.640625 C 256.03125 134.746094 255.640625 113.921875 247.941406 99.292969 C 243.34375 90.558594 232.875 83.730469 219.207031 80.554688 C 213.621094 79.261719 207.742188 78.601562 201.726562 78.601562 C 196.882812 78.601562 191.984375 79.03125 187.167969 79.878906 C 175.128906 82 163.761719 86.769531 154.292969 93.675781 C 138.210938 105.414062 126.996094 121.882812 122.714844 140.050781 C 120.597656 149.027344 120.28125 157.9375 121.78125 166.542969 C 123.34375 175.558594 126.828125 183.820312 132.132812 191.089844 C 136.777344 197.460938 142.601562 202.757812 149.445312 206.832031 C 155.992188 210.734375 163.304688 213.414062 171.164062 214.800781 C 175.175781 215.503906 179.332031 215.867188 183.515625 215.867188 " fill-opacity="1" fill-rule="nonzero"/></svg>