<svg xmlns="http://www.w3.org/2000/svg" xmlns:xlink="http://www.w3.org/1999/xlink" width="500" zoomAndPan="magnify" viewBox="0 0 375 374.999991" height="500" preserveAspectRatio="xMidYMid meet" version="1.0"><defs><clipPath id="060bcd0809"><path d="M 32.972656 0 L 341.972656 0 L 341.972656 375 L 32.972656 375 Z M 32.972656 0 " clip-rule="nonzero"/></clipPath></defs><path fill="#ffffff" d="M 106.792969 182.167969 C 106.792969 183.390625 105.796875 184.390625 104.578125 184.390625 L 85.28125 184.390625 C 84.058594 184.390625 83.0625 183.390625 83.0625 182.167969 L 83.0625 162.878906 C 83.0625 161.65625 84.058594 160.660156 85.28125 160.660156 L 104.578125 160.660156 C 105.796875 160.660156 106.792969 161.65625 106.792969 162.878906 Z M 104.578125 152.550781 L 85.28125 152.550781 C 79.585938 152.550781 74.957031 157.183594 74.957031 162.878906 L 74.957031 182.167969 C 74.957031 187.863281 79.585938 192.496094 85.28125 192.496094 L 104.578125 192.496094 C 110.269531 192.496094 114.898438 187.863281 114.898438 182.167969 L 114.898438 162.878906 C 114.898438 157.183594 110.269531 152.550781 104.578125 152.550781 " fill-opacity="1" fill-rule="nonzero"/><path fill="#ffffff" d="M 134.101562 168.472656 C 131.867188 168.472656 130.054688 170.285156 130.054688 172.523438 C 130.054688 174.761719 131.867188 176.574219 134.101562 176.574219 L 268.167969 176.574219 C 270.410156 176.574219 272.222656 174.761719 272.222656 172.523438 C 272.222656 170.285156 270.410156 168.472656 268.167969 168.472656 L 134.101562 168.472656 " fill-opacity="1" fill-rule="nonzero"/><path fill="#ffffff" d="M 106.792969 243.398438 C 106.792969 244.621094 105.796875 245.621094 104.578125 245.621094 L 85.28125 245.621094 C 84.058594 245.621094 83.0625 244.621094 83.0625 243.398438 L 83.0625 224.105469 C 83.0625 222.882812 84.058594 221.886719 85.28125 221.886719 L 104.578125 221.886719 C 105.796875 221.886719 106.792969 222.882812 106.792969 224.105469 Z M 104.578125 213.777344 L 85.28125 213.777344 C 79.585938 213.777344 74.957031 218.410156 74.957031 224.105469 L 74.957031 243.398438 C 74.957031 249.09375 79.585938 253.726562 85.28125 253.726562 L 104.578125 253.726562 C 110.269531 253.726562 114.898438 249.09375 114.898438 243.398438 L 114.898438 224.105469 C 114.898438 218.410156 110.269531 213.777344 104.578125 213.777344 " fill-opacity="1" fill-rule="nonzero"/><path fill="#ffffff" d="M 268.167969 229.699219 L 134.101562 229.699219 C 131.867188 229.699219 130.054688 231.511719 130.054688 233.75 C 130.054688 235.988281 131.867188 237.800781 134.101562 237.800781 L 268.167969 237.800781 C 270.410156 237.800781 272.222656 235.988281 272.222656 233.75 C 272.222656 231.511719 270.410156 229.699219 268.167969 229.699219 " fill-opacity="1" fill-rule="nonzero"/><path fill="#ffffff" d="M 106.792969 304.625 C 106.792969 305.851562 105.796875 306.847656 104.578125 306.847656 L 85.28125 306.847656 C 84.058594 306.847656 83.0625 305.851562 83.0625 304.625 L 83.0625 285.332031 C 83.0625 284.109375 84.058594 283.109375 85.28125 283.109375 L 104.578125 283.109375 C 105.796875 283.109375 106.792969 284.109375 106.792969 285.332031 Z M 104.578125 275.003906 L 85.28125 275.003906 C 79.585938 275.003906 74.957031 279.636719 74.957031 285.332031 L 74.957031 304.625 C 74.957031 310.320312 79.585938 314.953125 85.28125 314.953125 L 104.578125 314.953125 C 110.269531 314.953125 114.898438 310.320312 114.898438 304.625 L 114.898438 285.332031 C 114.898438 279.636719 110.269531 275.003906 104.578125 275.003906 " fill-opacity="1" fill-rule="nonzero"/><path fill="#ffffff" d="M 268.167969 290.921875 L 134.101562 290.921875 C 131.867188 290.921875 130.054688 292.734375 130.054688 294.976562 C 130.054688 297.214844 131.867188 299.027344 134.101562 299.027344 L 268.167969 299.027344 C 270.410156 299.027344 272.222656 297.214844 272.222656 294.976562 C 272.222656 292.734375 270.410156 290.921875 268.167969 290.921875 " fill-opacity="1" fill-rule="nonzero"/><g clip-path="url(#060bcd0809)"><path fill="#ffffff" d="M 276.878906 117.921875 C 274.566406 121.367188 270.898438 123.660156 266.792969 124.230469 C 266.128906 124.324219 265.464844 124.367188 264.792969 124.367188 C 261.363281 124.367188 258.019531 123.15625 255.375 120.910156 L 217.511719 88.753906 C 211.382812 83.550781 210.636719 74.367188 215.832031 68.242188 C 221.039062 62.125 230.214844 61.363281 236.34375 66.566406 L 261.789062 88.175781 L 295.847656 37.402344 C 300.320312 30.722656 309.359375 28.941406 316.035156 33.421875 C 322.707031 37.898438 324.488281 46.9375 320.011719 53.609375 Z M 297.988281 332.292969 C 297.988281 346.847656 286.152344 358.683594 271.605469 358.683594 L 75.585938 358.683594 C 61.035156 358.683594 49.195312 346.847656 49.195312 332.292969 L 49.195312 137.660156 L 52.554688 134.300781 L 90.855469 134.300781 C 109.910156 134.300781 125.355469 118.855469 125.355469 99.796875 L 125.355469 61.488281 L 128.710938 58.132812 L 196.085938 58.132812 C 194.976562 63.222656 194.351562 68.5 194.351562 73.925781 C 194.351562 114.710938 227.402344 147.757812 268.167969 147.757812 C 278.792969 147.757812 288.863281 145.476562 297.988281 141.4375 Z M 341.988281 73.925781 C 341.988281 33.15625 308.945312 0.0976562 268.167969 0.0976562 C 238.886719 0.0976562 213.65625 17.195312 201.730469 41.914062 L 125.355469 41.914062 C 123.203125 41.914062 121.144531 42.769531 119.625 44.292969 L 35.359375 128.570312 C 33.835938 130.089844 32.980469 132.152344 32.980469 134.300781 L 32.980469 332.292969 C 32.980469 355.785156 52.09375 374.898438 75.585938 374.898438 L 271.605469 374.898438 C 295.089844 374.898438 314.195312 355.785156 314.195312 332.292969 L 314.195312 131.597656 C 331.121094 118.070312 341.988281 97.285156 341.988281 73.925781 " fill-opacity="1" fill-rule="nonzero"/></g></svg>