<svg xmlns="http://www.w3.org/2000/svg" xmlns:xlink="http://www.w3.org/1999/xlink" width="500" zoomAndPan="magnify" viewBox="0 0 375 374.999991" height="500" preserveAspectRatio="xMidYMid meet" version="1.0"><defs><clipPath id="7a69275486"><path d="M 20.78125 4 L 354.53125 4 L 354.53125 371 L 20.78125 371 Z M 20.78125 4 " clip-rule="nonzero"/></clipPath></defs><g clip-path="url(#7a69275486)"><path fill="#ffffff" d="M 349.757812 125.78125 C 352.144531 125.78125 354.53125 123.992188 354.53125 121.007812 L 354.53125 39.277344 C 354.53125 36.890625 352.742188 34.503906 349.757812 34.503906 L 325.875 34.503906 L 325.875 8.851562 C 325.875 6.464844 324.082031 4.082031 321.097656 4.082031 L 54.21875 4.082031 C 51.828125 4.082031 49.441406 5.871094 49.441406 8.851562 L 49.441406 34.503906 L 25.558594 34.503906 C 23.171875 34.503906 20.78125 36.296875 20.78125 39.277344 L 20.78125 121.007812 C 20.78125 123.394531 22.574219 125.78125 25.558594 125.78125 L 49.441406 125.78125 L 49.441406 141.292969 L 25.558594 141.292969 C 23.171875 141.292969 20.78125 143.082031 20.78125 146.066406 L 20.78125 228.394531 C 20.78125 230.78125 22.574219 233.164062 25.558594 233.164062 L 49.441406 233.164062 L 49.441406 248.675781 L 25.558594 248.675781 C 23.171875 248.675781 20.78125 250.464844 20.78125 253.449219 L 20.78125 335.777344 C 20.78125 338.164062 22.574219 340.550781 25.558594 340.550781 L 49.441406 340.550781 L 49.441406 366.203125 C 49.441406 368.589844 51.234375 370.976562 54.21875 370.976562 L 321.097656 370.976562 C 323.488281 370.976562 325.875 369.183594 325.875 366.203125 L 325.875 340.550781 L 349.757812 340.550781 C 352.144531 340.550781 354.53125 338.761719 354.53125 335.777344 L 354.53125 252.257812 C 354.53125 249.871094 352.742188 247.484375 349.757812 247.484375 L 325.875 247.484375 L 325.875 231.972656 L 349.757812 231.972656 C 352.144531 231.972656 354.53125 230.183594 354.53125 227.199219 L 354.53125 145.46875 C 354.53125 143.082031 352.742188 140.695312 349.757812 140.695312 L 325.875 140.695312 L 325.875 125.183594 L 349.757812 125.183594 Z M 58.996094 13.027344 L 316.917969 13.027344 L 316.917969 34.503906 L 58.996094 34.503906 Z M 30.335938 43.453125 C 123.476562 43.453125 251.839844 43.453125 344.980469 43.453125 L 344.980469 116.832031 C 251.839844 116.832031 123.476562 116.832031 30.335938 116.832031 Z M 316.917969 360.238281 L 58.996094 360.238281 L 58.996094 338.761719 L 316.917969 338.761719 Z M 345.578125 329.8125 C 344.382812 329.8125 54.21875 329.8125 54.816406 329.8125 C 53.621094 329.8125 29.140625 329.8125 30.933594 329.8125 L 30.933594 256.433594 L 345.578125 256.433594 Z M 316.917969 247.484375 L 58.996094 247.484375 L 58.996094 231.972656 L 316.917969 231.972656 Z M 345.578125 223.023438 C 252.4375 223.023438 124.074219 223.023438 30.933594 223.023438 L 30.933594 150.242188 L 345.578125 150.242188 Z M 316.917969 141.292969 L 58.996094 141.292969 L 58.996094 125.78125 L 316.917969 125.78125 Z M 316.917969 141.292969 " fill-opacity="1" fill-rule="nonzero"/></g><path fill="#ffffff" d="M 314.53125 104.902344 C 328.261719 104.902344 339.605469 93.566406 339.605469 79.84375 C 339.605469 66.125 328.261719 54.789062 314.53125 54.789062 C 300.796875 54.789062 289.453125 66.125 289.453125 79.84375 C 289.453125 93.566406 300.796875 104.902344 314.53125 104.902344 Z M 314.53125 64.335938 C 323.488281 64.335938 330.652344 71.492188 330.652344 80.441406 C 330.652344 89.390625 323.488281 96.550781 314.53125 96.550781 C 305.574219 96.550781 298.410156 89.390625 298.410156 80.441406 C 298.410156 71.492188 305.574219 64.335938 314.53125 64.335938 Z M 314.53125 64.335938 " fill-opacity="1" fill-rule="nonzero"/><path fill="#ffffff" d="M 254.824219 104.902344 C 268.558594 104.902344 279.902344 93.566406 279.902344 79.84375 C 279.902344 66.125 268.558594 54.789062 254.824219 54.789062 C 241.09375 54.789062 229.75 66.125 229.75 79.84375 C 229.75 93.566406 241.09375 104.902344 254.824219 104.902344 Z M 254.824219 64.335938 C 263.78125 64.335938 270.945312 71.492188 270.945312 80.441406 C 270.945312 89.390625 263.78125 96.550781 254.824219 96.550781 C 245.871094 96.550781 238.707031 89.390625 238.707031 80.441406 C 238.707031 71.492188 245.871094 64.335938 254.824219 64.335938 Z M 254.824219 64.335938 " fill-opacity="1" fill-rule="nonzero"/><path fill="#ffffff" d="M 198.703125 104.902344 C 212.433594 104.902344 223.78125 93.566406 223.78125 79.84375 C 223.78125 66.125 212.433594 54.789062 198.703125 54.789062 C 184.972656 54.789062 173.628906 66.125 173.628906 79.84375 C 173.628906 93.566406 184.972656 104.902344 198.703125 104.902344 Z M 198.703125 64.335938 C 207.660156 64.335938 214.824219 71.492188 214.824219 80.441406 C 214.824219 89.390625 207.660156 96.550781 198.703125 96.550781 C 189.746094 96.550781 182.582031 89.390625 182.582031 80.441406 C 182.582031 71.492188 189.746094 64.335938 198.703125 64.335938 Z M 198.703125 64.335938 " fill-opacity="1" fill-rule="nonzero"/><path fill="#ffffff" d="M 198.703125 211.6875 C 212.433594 211.6875 223.78125 200.355469 223.78125 186.632812 C 223.78125 172.910156 212.433594 161.578125 198.703125 161.578125 C 184.972656 161.578125 173.628906 172.910156 173.628906 186.632812 C 173.628906 200.355469 184.972656 211.6875 198.703125 211.6875 Z M 198.703125 170.523438 C 207.660156 170.523438 214.824219 177.683594 214.824219 186.632812 C 214.824219 195.582031 207.660156 202.742188 198.703125 202.742188 C 189.746094 202.742188 182.582031 195.582031 182.582031 186.632812 C 182.582031 177.683594 189.746094 170.523438 198.703125 170.523438 Z M 198.703125 170.523438 " fill-opacity="1" fill-rule="nonzero"/><path fill="#ffffff" d="M 198.703125 317.878906 C 212.433594 317.878906 223.78125 306.542969 223.78125 292.824219 C 223.78125 279.101562 212.433594 267.765625 198.703125 267.765625 C 184.972656 267.765625 173.628906 279.101562 173.628906 292.824219 C 173.628906 306.542969 184.972656 317.878906 198.703125 317.878906 Z M 198.703125 277.3125 C 207.660156 277.3125 214.824219 284.472656 214.824219 293.421875 C 214.824219 302.367188 207.660156 309.527344 198.703125 309.527344 C 189.746094 309.527344 182.582031 302.367188 182.582031 293.421875 C 182.582031 284.472656 189.746094 277.3125 198.703125 277.3125 Z M 198.703125 277.3125 " fill-opacity="1" fill-rule="nonzero"/><path fill="#ffffff" d="M 314.53125 211.09375 C 328.261719 211.09375 339.605469 199.757812 339.605469 186.035156 C 339.605469 172.316406 328.261719 160.980469 314.53125 160.980469 C 300.796875 160.980469 289.453125 172.910156 289.453125 186.632812 C 289.453125 200.355469 300.796875 211.09375 314.53125 211.09375 Z M 314.53125 170.523438 C 323.488281 170.523438 330.652344 177.683594 330.652344 186.632812 C 330.652344 195.582031 323.488281 202.742188 314.53125 202.742188 C 305.574219 202.742188 298.410156 195.582031 298.410156 186.632812 C 298.410156 177.683594 305.574219 170.523438 314.53125 170.523438 Z M 314.53125 170.523438 " fill-opacity="1" fill-rule="nonzero"/><path fill="#ffffff" d="M 254.824219 211.09375 C 268.558594 211.09375 279.902344 199.757812 279.902344 186.035156 C 279.902344 172.316406 268.558594 160.980469 254.824219 160.980469 C 241.09375 160.980469 229.75 172.316406 229.75 186.035156 C 229.75 199.757812 241.09375 211.09375 254.824219 211.09375 Z M 254.824219 170.523438 C 263.78125 170.523438 270.945312 177.683594 270.945312 186.632812 C 270.945312 195.582031 263.78125 202.742188 254.824219 202.742188 C 245.871094 202.742188 238.707031 195.582031 238.707031 186.632812 C 238.707031 177.683594 245.871094 170.523438 254.824219 170.523438 Z M 254.824219 170.523438 " fill-opacity="1" fill-rule="nonzero"/><path fill="#ffffff" d="M 314.53125 317.878906 C 328.261719 317.878906 339.605469 306.542969 339.605469 292.824219 C 339.605469 279.101562 328.261719 267.765625 314.53125 267.765625 C 300.796875 267.765625 289.453125 279.101562 289.453125 292.824219 C 289.453125 306.542969 300.796875 317.878906 314.53125 317.878906 Z M 314.53125 277.3125 C 323.488281 277.3125 330.652344 284.472656 330.652344 293.421875 C 330.652344 302.367188 323.488281 309.527344 314.53125 309.527344 C 305.574219 309.527344 298.410156 302.367188 298.410156 293.421875 C 298.410156 284.472656 305.574219 277.3125 314.53125 277.3125 Z M 314.53125 277.3125 " fill-opacity="1" fill-rule="nonzero"/><path fill="#ffffff" d="M 254.824219 317.878906 C 268.558594 317.878906 279.902344 306.542969 279.902344 292.824219 C 279.902344 279.101562 268.558594 267.765625 254.824219 267.765625 C 241.09375 267.765625 229.75 279.101562 229.75 292.824219 C 229.75 306.542969 241.09375 317.878906 254.824219 317.878906 Z M 254.824219 277.3125 C 263.78125 277.3125 270.945312 284.472656 270.945312 293.421875 C 270.945312 302.367188 263.78125 309.527344 254.824219 309.527344 C 245.871094 309.527344 238.707031 302.367188 238.707031 293.421875 C 238.707031 284.472656 245.871094 277.3125 254.824219 277.3125 Z M 254.824219 277.3125 " fill-opacity="1" fill-rule="nonzero"/><path fill="#ffffff" d="M 50.636719 301.773438 L 66.753906 301.773438 C 71.53125 301.773438 75.710938 297.597656 75.710938 292.824219 L 75.710938 274.925781 C 75.710938 270.152344 71.53125 265.976562 66.753906 265.976562 L 50.636719 265.976562 C 45.859375 265.976562 41.679688 270.152344 41.679688 274.925781 L 41.679688 292.824219 C 41.679688 297.597656 45.859375 301.773438 50.636719 301.773438 Z M 66.160156 274.925781 L 66.160156 292.226562 L 50.636719 292.226562 L 50.636719 274.925781 Z M 66.160156 274.925781 " fill-opacity="1" fill-rule="nonzero"/><path fill="#ffffff" d="M 92.429688 301.773438 L 108.550781 301.773438 C 113.324219 301.773438 117.503906 297.597656 117.503906 292.824219 L 117.503906 274.925781 C 117.503906 270.152344 113.324219 265.976562 108.550781 265.976562 L 92.429688 265.976562 C 87.652344 265.976562 83.472656 270.152344 83.472656 274.925781 L 83.472656 292.824219 C 84.070312 297.597656 87.652344 301.773438 92.429688 301.773438 Z M 108.550781 274.925781 L 108.550781 292.226562 L 93.027344 292.226562 L 93.027344 274.925781 Z M 108.550781 274.925781 " fill-opacity="1" fill-rule="nonzero"/><path fill="#ffffff" d="M 134.222656 301.773438 L 150.34375 301.773438 C 155.117188 301.773438 159.296875 297.597656 159.296875 292.824219 L 159.296875 274.925781 C 159.296875 270.152344 155.117188 265.976562 150.34375 265.976562 L 134.222656 265.976562 C 129.445312 265.976562 125.265625 270.152344 125.265625 274.925781 L 125.265625 292.824219 C 125.863281 297.597656 129.445312 301.773438 134.222656 301.773438 Z M 150.34375 274.925781 L 150.34375 292.226562 L 134.820312 292.226562 L 134.820312 274.925781 Z M 150.34375 274.925781 " fill-opacity="1" fill-rule="nonzero"/><path fill="#ffffff" d="M 46.457031 319.667969 L 154.523438 319.667969 C 156.910156 319.667969 159.296875 317.878906 159.296875 314.898438 C 159.296875 312.511719 157.507812 310.125 154.523438 310.125 L 46.457031 310.125 C 44.066406 310.125 41.679688 311.914062 41.679688 314.898438 C 41.679688 317.878906 44.066406 319.667969 46.457031 319.667969 Z M 46.457031 319.667969 " fill-opacity="1" fill-rule="nonzero"/><path fill="#ffffff" d="M 50.636719 194.984375 L 66.753906 194.984375 C 71.53125 194.984375 75.710938 190.808594 75.710938 186.035156 L 75.710938 168.140625 C 75.710938 163.367188 71.53125 159.191406 66.753906 159.191406 L 50.636719 159.191406 C 45.859375 159.191406 41.679688 163.367188 41.679688 168.140625 L 41.679688 186.035156 C 41.679688 190.808594 45.859375 194.984375 50.636719 194.984375 Z M 66.160156 168.734375 L 66.160156 186.035156 L 50.636719 186.035156 L 50.636719 168.734375 Z M 66.160156 168.734375 " fill-opacity="1" fill-rule="nonzero"/><path fill="#ffffff" d="M 92.429688 194.984375 L 108.550781 194.984375 C 113.324219 194.984375 117.503906 190.808594 117.503906 186.035156 L 117.503906 168.140625 C 117.503906 163.367188 113.324219 159.191406 108.550781 159.191406 L 92.429688 159.191406 C 87.652344 159.191406 83.472656 163.367188 83.472656 168.140625 L 83.472656 186.035156 C 84.070312 190.808594 87.652344 194.984375 92.429688 194.984375 Z M 108.550781 168.734375 L 108.550781 186.035156 L 93.027344 186.035156 L 93.027344 168.734375 Z M 108.550781 168.734375 " fill-opacity="1" fill-rule="nonzero"/><path fill="#ffffff" d="M 134.222656 194.984375 L 150.34375 194.984375 C 155.117188 194.984375 159.296875 190.808594 159.296875 186.035156 L 159.296875 168.140625 C 159.296875 163.367188 155.117188 159.191406 150.34375 159.191406 L 134.222656 159.191406 C 129.445312 159.191406 125.265625 163.367188 125.265625 168.140625 L 125.265625 186.035156 C 125.863281 190.808594 129.445312 194.984375 134.222656 194.984375 Z M 150.34375 168.734375 L 150.34375 186.035156 L 134.820312 186.035156 L 134.820312 168.734375 Z M 150.34375 168.734375 " fill-opacity="1" fill-rule="nonzero"/><path fill="#ffffff" d="M 46.457031 213.480469 L 154.523438 213.480469 C 156.910156 213.480469 159.296875 211.6875 159.296875 208.707031 C 159.296875 206.320312 157.507812 203.933594 154.523438 203.933594 L 46.457031 203.933594 C 44.066406 203.933594 41.679688 205.722656 41.679688 208.707031 C 41.679688 211.09375 44.066406 213.480469 46.457031 213.480469 Z M 46.457031 213.480469 " fill-opacity="1" fill-rule="nonzero"/><path fill="#ffffff" d="M 50.636719 88.199219 L 66.753906 88.199219 C 71.53125 88.199219 75.710938 84.019531 75.710938 79.25 L 75.710938 61.351562 C 75.710938 56.578125 71.53125 52.402344 66.753906 52.402344 L 50.636719 52.402344 C 45.859375 52.402344 41.679688 56.578125 41.679688 61.351562 L 41.679688 79.25 C 41.679688 84.617188 45.859375 88.199219 50.636719 88.199219 Z M 66.160156 61.949219 L 66.160156 79.25 L 50.636719 79.25 L 50.636719 61.949219 Z M 66.160156 61.949219 " fill-opacity="1" fill-rule="nonzero"/><path fill="#ffffff" d="M 92.429688 88.199219 L 108.550781 88.199219 C 113.324219 88.199219 117.503906 84.019531 117.503906 79.25 L 117.503906 61.351562 C 117.503906 56.578125 113.324219 52.402344 108.550781 52.402344 L 92.429688 52.402344 C 87.652344 52.402344 83.472656 56.578125 83.472656 61.351562 L 83.472656 79.25 C 84.070312 84.617188 87.652344 88.199219 92.429688 88.199219 Z M 108.550781 61.949219 L 108.550781 79.25 L 93.027344 79.25 L 93.027344 61.949219 Z M 108.550781 61.949219 " fill-opacity="1" fill-rule="nonzero"/><path fill="#ffffff" d="M 134.222656 88.199219 L 150.34375 88.199219 C 155.117188 88.199219 159.296875 84.019531 159.296875 79.25 L 159.296875 61.351562 C 159.296875 56.578125 155.117188 52.402344 150.34375 52.402344 L 134.222656 52.402344 C 129.445312 52.402344 125.265625 56.578125 125.265625 61.351562 L 125.265625 79.25 C 125.863281 84.617188 129.445312 88.199219 134.222656 88.199219 Z M 150.34375 61.949219 L 150.34375 79.25 L 134.820312 79.25 L 134.820312 61.949219 Z M 150.34375 61.949219 " fill-opacity="1" fill-rule="nonzero"/><path fill="#ffffff" d="M 154.523438 106.691406 C 156.910156 106.691406 159.296875 104.902344 159.296875 101.917969 C 159.296875 99.53125 157.507812 97.144531 154.523438 97.144531 L 46.457031 97.144531 C 44.066406 97.144531 41.679688 98.9375 41.679688 101.917969 C 41.679688 104.304688 43.472656 106.691406 46.457031 106.691406 Z M 154.523438 106.691406 " fill-opacity="1" fill-rule="nonzero"/></svg>