<svg xmlns="http://www.w3.org/2000/svg" xmlns:xlink="http://www.w3.org/1999/xlink" width="500" zoomAndPan="magnify" viewBox="0 0 375 374.999991" height="500" preserveAspectRatio="xMidYMid meet" version="1.0"><defs><filter x="0%" y="0%" width="100%" height="100%" id="ec250b636c"><feColorMatrix values="0 0 0 0 1 0 0 0 0 1 0 0 0 0 1 0 0 0 1 0" color-interpolation-filters="sRGB"/></filter><mask id="e14d64c2e1"><g filter="url(#ec250b636c)"><rect x="-37.5" width="450" fill="#000000" y="-37.499999" height="449.999989" fill-opacity="0.2196"/></g></mask><clipPath id="9e09d2cabc"><path d="M 0.75 89 L 278.25 89 L 278.25 301 L 0.75 301 Z M 0.75 89 " clip-rule="nonzero"/></clipPath><clipPath id="5407c8e3f6"><rect x="0" width="279" y="0" height="375"/></clipPath></defs><g mask="url(#e14d64c2e1)"><g transform="matrix(1, 0, 0, 1, 48, 0)"><g clip-path="url(#5407c8e3f6)"><path fill="#e3f1e6" d="M 90.148438 292.574219 C 56.023438 292.574219 28.351562 264.898438 28.351562 230.773438 C 28.351562 204.976562 43.800781 182.925781 66 173.699219 C 66 173.699219 43.648438 170.699219 27.375 189.523438 C 11.101562 208.351562 6 234.523438 18.523438 264.148438 C 31.050781 293.773438 80.476562 294.449219 90.148438 292.574219 Z M 90.148438 292.574219 " fill-opacity="1" fill-rule="nonzero"/><g clip-path="url(#9e09d2cabc)"><path fill="#00a14b" d="M 210.449219 300.375 L 159.976562 300.375 C 156.75 300.375 154.125 297.75 154.125 294.523438 C 154.125 291.300781 156.75 288.675781 159.976562 288.675781 L 210.449219 288.675781 C 241.273438 288.675781 266.398438 263.625 266.398438 232.726562 C 266.398438 203.476562 244.800781 179.398438 216.148438 176.851562 C 213.148438 176.550781 210.824219 174.074219 210.824219 171 C 210.824219 132.375 179.398438 100.949219 140.699219 100.949219 C 102.074219 100.949219 70.574219 132.375 70.574219 171 C 70.574219 174.148438 68.101562 176.699219 65.023438 176.851562 C 35.625 178.351562 12.601562 202.875 12.601562 232.648438 C 12.601562 263.476562 37.648438 288.601562 68.550781 288.601562 L 119.25 288.601562 C 122.476562 288.601562 125.101562 291.226562 125.101562 294.449219 C 125.101562 297.675781 122.476562 300.300781 119.25 300.300781 L 68.476562 300.300781 C 31.199219 300.375 0.824219 270 0.824219 232.726562 C 0.824219 198.523438 25.949219 170.023438 59.023438 165.675781 C 61.800781 123.074219 97.351562 89.25 140.699219 89.25 C 184.050781 89.25 219.675781 123.148438 222.375 165.824219 C 254.550781 171.226562 278.175781 199.125 278.175781 232.726562 C 278.101562 270 247.800781 300.375 210.449219 300.375 Z M 210.449219 300.375 " fill-opacity="1" fill-rule="nonzero"/></g><path fill="#8bc53f" d="M 263.324219 206.25 C 261.300781 206.25 259.425781 205.199219 258.300781 203.398438 C 249.226562 188.324219 233.476562 178.425781 216.148438 176.851562 C 213.148438 176.550781 210.824219 174.074219 210.824219 171 C 210.824219 132.375 179.398438 100.949219 140.699219 100.949219 C 118.5 100.949219 97.351562 111.675781 84.148438 129.601562 C 82.199219 132.226562 78.523438 132.75 75.976562 130.875 C 73.351562 128.925781 72.824219 125.25 74.699219 122.699219 C 90.074219 101.773438 114.75 89.25 140.699219 89.25 C 184.125 89.25 219.675781 123.148438 222.375 165.824219 C 241.351562 169.050781 258.300781 180.601562 268.351562 197.324219 C 270 200.101562 269.101562 203.699219 266.324219 205.351562 C 265.425781 205.949219 264.375 206.25 263.324219 206.25 Z M 263.324219 206.25 " fill-opacity="1" fill-rule="nonzero"/><path fill="#00a14b" d="M 142.050781 230.398438 C 140.25 230.398438 138.449219 229.574219 137.324219 228 C 135.375 225.375 135.976562 221.699219 138.601562 219.824219 L 165.523438 200.101562 C 168.148438 198.148438 171.824219 198.75 173.699219 201.375 C 175.648438 204 175.050781 207.675781 172.425781 209.550781 L 145.5 229.273438 C 144.449219 230.023438 143.25 230.398438 142.050781 230.398438 Z M 142.050781 230.398438 " fill-opacity="1" fill-rule="nonzero"/><path fill="#8bc53f" d="M 137.476562 266.773438 C 136.273438 266.773438 135 266.398438 133.949219 265.574219 L 89.023438 232.050781 C 86.398438 230.101562 85.875 226.425781 87.824219 223.875 C 89.773438 221.25 93.449219 220.726562 96 222.675781 L 140.925781 256.199219 C 143.550781 258.148438 144.074219 261.824219 142.125 264.375 C 141 266.023438 139.273438 266.773438 137.476562 266.773438 Z M 137.476562 266.773438 " fill-opacity="1" fill-rule="nonzero"/><path fill="#00a14b" d="M 139.5 375 C 136.273438 375 133.648438 372.375 133.648438 369.148438 L 133.648438 175.726562 C 133.648438 172.5 136.273438 169.875 139.5 169.875 C 142.726562 169.875 145.351562 172.5 145.351562 175.726562 L 145.351562 369.148438 C 145.351562 372.375 142.726562 375 139.5 375 Z M 139.5 375 " fill-opacity="1" fill-rule="nonzero"/><path fill="#8bc53f" d="M 20.625 134.175781 C 20.625 134.632812 20.582031 135.085938 20.492188 135.535156 C 20.402344 135.984375 20.269531 136.421875 20.09375 136.84375 C 19.917969 137.265625 19.703125 137.667969 19.449219 138.050781 C 19.195312 138.429688 18.90625 138.78125 18.582031 139.105469 C 18.257812 139.429688 17.90625 139.71875 17.523438 139.972656 C 17.144531 140.230469 16.742188 140.445312 16.320312 140.617188 C 15.894531 140.792969 15.460938 140.925781 15.011719 141.015625 C 14.5625 141.105469 14.109375 141.148438 13.648438 141.148438 C 13.191406 141.148438 12.738281 141.105469 12.289062 141.015625 C 11.839844 140.925781 11.402344 140.792969 10.980469 140.617188 C 10.558594 140.445312 10.15625 140.230469 9.773438 139.972656 C 9.394531 139.71875 9.042969 139.429688 8.71875 139.105469 C 8.394531 138.78125 8.105469 138.429688 7.851562 138.050781 C 7.597656 137.667969 7.382812 137.265625 7.207031 136.84375 C 7.03125 136.421875 6.898438 135.984375 6.808594 135.535156 C 6.71875 135.085938 6.675781 134.632812 6.675781 134.175781 C 6.675781 133.71875 6.71875 133.261719 6.808594 132.8125 C 6.898438 132.363281 7.03125 131.929688 7.207031 131.503906 C 7.382812 131.082031 7.597656 130.679688 7.851562 130.300781 C 8.105469 129.917969 8.394531 129.566406 8.71875 129.242188 C 9.042969 128.917969 9.394531 128.628906 9.773438 128.375 C 10.15625 128.121094 10.558594 127.90625 10.980469 127.730469 C 11.402344 127.554688 11.839844 127.421875 12.289062 127.335938 C 12.738281 127.246094 13.191406 127.199219 13.648438 127.199219 C 14.109375 127.199219 14.5625 127.246094 15.011719 127.335938 C 15.460938 127.421875 15.894531 127.554688 16.320312 127.730469 C 16.742188 127.90625 17.144531 128.121094 17.523438 128.375 C 17.90625 128.628906 18.257812 128.917969 18.582031 129.242188 C 18.90625 129.566406 19.195312 129.917969 19.449219 130.300781 C 19.703125 130.679688 19.917969 131.082031 20.09375 131.503906 C 20.269531 131.929688 20.402344 132.363281 20.492188 132.8125 C 20.582031 133.261719 20.625 133.71875 20.625 134.175781 Z M 20.625 134.175781 " fill-opacity="1" fill-rule="nonzero"/><path fill="#00a14b" d="M 32.023438 106.648438 C 32.023438 107.109375 31.980469 107.5625 31.890625 108.011719 C 31.800781 108.460938 31.667969 108.894531 31.492188 109.320312 C 31.320312 109.742188 31.105469 110.144531 30.847656 110.523438 C 30.59375 110.90625 30.304688 111.257812 29.980469 111.582031 C 29.660156 111.90625 29.304688 112.195312 28.925781 112.449219 C 28.542969 112.703125 28.140625 112.917969 27.71875 113.09375 C 27.296875 113.269531 26.859375 113.402344 26.410156 113.492188 C 25.960938 113.582031 25.507812 113.625 25.050781 113.625 C 24.59375 113.625 24.136719 113.582031 23.6875 113.492188 C 23.238281 113.402344 22.804688 113.269531 22.378906 113.09375 C 21.957031 112.917969 21.554688 112.703125 21.175781 112.449219 C 20.792969 112.195312 20.441406 111.90625 20.117188 111.582031 C 19.792969 111.257812 19.503906 110.90625 19.25 110.523438 C 18.996094 110.144531 18.78125 109.742188 18.605469 109.320312 C 18.429688 108.894531 18.296875 108.460938 18.210938 108.011719 C 18.121094 107.5625 18.074219 107.109375 18.074219 106.648438 C 18.074219 106.191406 18.121094 105.738281 18.210938 105.289062 C 18.296875 104.839844 18.429688 104.402344 18.605469 103.980469 C 18.78125 103.558594 18.996094 103.15625 19.25 102.773438 C 19.503906 102.394531 19.792969 102.042969 20.117188 101.71875 C 20.441406 101.394531 20.792969 101.105469 21.175781 100.851562 C 21.554688 100.597656 21.957031 100.382812 22.378906 100.207031 C 22.804688 100.03125 23.238281 99.898438 23.6875 99.808594 C 24.136719 99.71875 24.59375 99.675781 25.050781 99.675781 C 25.507812 99.675781 25.960938 99.71875 26.410156 99.808594 C 26.859375 99.898438 27.296875 100.03125 27.71875 100.207031 C 28.140625 100.382812 28.542969 100.597656 28.925781 100.851562 C 29.304688 101.105469 29.660156 101.394531 29.980469 101.71875 C 30.304688 102.042969 30.59375 102.394531 30.847656 102.773438 C 31.105469 103.15625 31.320312 103.558594 31.492188 103.980469 C 31.667969 104.402344 31.800781 104.839844 31.890625 105.289062 C 31.980469 105.738281 32.023438 106.191406 32.023438 106.648438 Z M 32.023438 106.648438 " fill-opacity="1" fill-rule="nonzero"/><path fill="#8bc53f" d="M 272.25 53.324219 C 272.25 53.78125 272.207031 54.238281 272.117188 54.6875 C 272.027344 55.136719 271.894531 55.570312 271.71875 55.996094 C 271.542969 56.417969 271.328125 56.820312 271.074219 57.199219 C 270.820312 57.582031 270.53125 57.933594 270.207031 58.257812 C 269.882812 58.582031 269.53125 58.871094 269.148438 59.125 C 268.769531 59.378906 268.367188 59.59375 267.945312 59.769531 C 267.519531 59.945312 267.085938 60.078125 266.636719 60.164062 C 266.1875 60.253906 265.734375 60.300781 265.273438 60.300781 C 264.816406 60.300781 264.363281 60.253906 263.914062 60.164062 C 263.464844 60.078125 263.027344 59.945312 262.605469 59.769531 C 262.183594 59.59375 261.78125 59.378906 261.398438 59.125 C 261.019531 58.871094 260.667969 58.582031 260.34375 58.257812 C 260.019531 57.933594 259.730469 57.582031 259.476562 57.199219 C 259.222656 56.820312 259.007812 56.417969 258.832031 55.996094 C 258.65625 55.570312 258.523438 55.136719 258.433594 54.6875 C 258.34375 54.238281 258.300781 53.78125 258.300781 53.324219 C 258.300781 52.867188 258.34375 52.414062 258.433594 51.964844 C 258.523438 51.515625 258.65625 51.078125 258.832031 50.65625 C 259.007812 50.234375 259.222656 49.832031 259.476562 49.449219 C 259.730469 49.070312 260.019531 48.714844 260.34375 48.394531 C 260.667969 48.070312 261.019531 47.78125 261.398438 47.527344 C 261.78125 47.269531 262.183594 47.054688 262.605469 46.882812 C 263.027344 46.707031 263.464844 46.574219 263.914062 46.484375 C 264.363281 46.394531 264.816406 46.351562 265.273438 46.351562 C 265.734375 46.351562 266.1875 46.394531 266.636719 46.484375 C 267.085938 46.574219 267.519531 46.707031 267.945312 46.882812 C 268.367188 47.054688 268.769531 47.269531 269.148438 47.527344 C 269.53125 47.78125 269.882812 48.070312 270.207031 48.394531 C 270.53125 48.714844 270.820312 49.070312 271.074219 49.449219 C 271.328125 49.832031 271.542969 50.234375 271.71875 50.65625 C 271.894531 51.078125 272.027344 51.515625 272.117188 51.964844 C 272.207031 52.414062 272.25 52.867188 272.25 53.324219 Z M 272.25 53.324219 " fill-opacity="1" fill-rule="nonzero"/><path fill="#00a14b" d="M 146.476562 148.875 C 146.476562 149.332031 146.429688 149.785156 146.339844 150.234375 C 146.25 150.683594 146.121094 151.121094 145.945312 151.542969 C 145.769531 151.96875 145.554688 152.371094 145.300781 152.75 C 145.046875 153.132812 144.757812 153.484375 144.433594 153.808594 C 144.109375 154.132812 143.757812 154.421875 143.375 154.675781 C 142.996094 154.929688 142.59375 155.144531 142.167969 155.320312 C 141.746094 155.496094 141.308594 155.625 140.859375 155.714844 C 140.410156 155.804688 139.957031 155.851562 139.5 155.851562 C 139.042969 155.851562 138.589844 155.804688 138.140625 155.714844 C 137.691406 155.625 137.253906 155.496094 136.832031 155.320312 C 136.40625 155.144531 136.003906 154.929688 135.625 154.675781 C 135.242188 154.421875 134.890625 154.132812 134.566406 153.808594 C 134.242188 153.484375 133.953125 153.132812 133.699219 152.75 C 133.445312 152.371094 133.230469 151.96875 133.054688 151.542969 C 132.878906 151.121094 132.75 150.683594 132.660156 150.234375 C 132.570312 149.785156 132.523438 149.332031 132.523438 148.875 C 132.523438 148.417969 132.570312 147.964844 132.660156 147.515625 C 132.75 147.066406 132.878906 146.628906 133.054688 146.207031 C 133.230469 145.78125 133.445312 145.378906 133.699219 145 C 133.953125 144.617188 134.242188 144.265625 134.566406 143.941406 C 134.890625 143.617188 135.242188 143.328125 135.625 143.074219 C 136.003906 142.820312 136.40625 142.605469 136.832031 142.429688 C 137.253906 142.253906 137.691406 142.125 138.140625 142.035156 C 138.589844 141.945312 139.042969 141.898438 139.5 141.898438 C 139.957031 141.898438 140.410156 141.945312 140.859375 142.035156 C 141.308594 142.125 141.746094 142.253906 142.167969 142.429688 C 142.59375 142.605469 142.996094 142.820312 143.375 143.074219 C 143.757812 143.328125 144.109375 143.617188 144.433594 143.941406 C 144.757812 144.265625 145.046875 144.617188 145.300781 145 C 145.554688 145.378906 145.769531 145.78125 145.945312 146.207031 C 146.121094 146.628906 146.25 147.066406 146.339844 147.515625 C 146.429688 147.964844 146.476562 148.417969 146.476562 148.875 Z M 146.476562 148.875 " fill-opacity="1" fill-rule="nonzero"/><path fill="#00a14b" d="M 191.324219 69.375 C 191.324219 69.832031 191.28125 70.285156 191.191406 70.734375 C 191.101562 71.183594 190.96875 71.621094 190.792969 72.042969 C 190.617188 72.46875 190.402344 72.871094 190.148438 73.25 C 189.894531 73.632812 189.605469 73.984375 189.28125 74.308594 C 188.957031 74.632812 188.605469 74.921875 188.226562 75.175781 C 187.84375 75.429688 187.441406 75.644531 187.019531 75.820312 C 186.597656 75.996094 186.160156 76.125 185.710938 76.214844 C 185.261719 76.304688 184.808594 76.351562 184.351562 76.351562 C 183.890625 76.351562 183.4375 76.304688 182.988281 76.214844 C 182.539062 76.125 182.105469 75.996094 181.679688 75.820312 C 181.257812 75.644531 180.855469 75.429688 180.476562 75.175781 C 180.09375 74.921875 179.742188 74.632812 179.417969 74.308594 C 179.09375 73.984375 178.804688 73.632812 178.550781 73.25 C 178.296875 72.871094 178.082031 72.46875 177.90625 72.042969 C 177.730469 71.621094 177.597656 71.183594 177.507812 70.734375 C 177.417969 70.285156 177.375 69.832031 177.375 69.375 C 177.375 68.917969 177.417969 68.464844 177.507812 68.015625 C 177.597656 67.566406 177.730469 67.128906 177.90625 66.707031 C 178.082031 66.28125 178.296875 65.878906 178.550781 65.5 C 178.804688 65.117188 179.09375 64.765625 179.417969 64.441406 C 179.742188 64.117188 180.09375 63.828125 180.476562 63.574219 C 180.855469 63.320312 181.257812 63.105469 181.679688 62.929688 C 182.105469 62.753906 182.539062 62.625 182.988281 62.535156 C 183.4375 62.445312 183.890625 62.398438 184.351562 62.398438 C 184.808594 62.398438 185.261719 62.445312 185.710938 62.535156 C 186.160156 62.625 186.597656 62.753906 187.019531 62.929688 C 187.441406 63.105469 187.84375 63.320312 188.226562 63.574219 C 188.605469 63.828125 188.957031 64.117188 189.28125 64.441406 C 189.605469 64.765625 189.894531 65.117188 190.148438 65.5 C 190.402344 65.878906 190.617188 66.28125 190.792969 66.707031 C 190.96875 67.128906 191.101562 67.566406 191.191406 68.015625 C 191.28125 68.464844 191.324219 68.917969 191.324219 69.375 Z M 191.324219 69.375 " fill-opacity="1" fill-rule="nonzero"/><path fill="#00a14b" d="M 265.273438 145.351562 C 265.273438 145.808594 265.230469 146.261719 265.140625 146.710938 C 265.050781 147.160156 264.917969 147.597656 264.742188 148.019531 C 264.570312 148.441406 264.355469 148.84375 264.097656 149.226562 C 263.84375 149.605469 263.554688 149.957031 263.230469 150.28125 C 262.910156 150.605469 262.554688 150.894531 262.175781 151.148438 C 261.792969 151.402344 261.390625 151.617188 260.96875 151.792969 C 260.546875 151.96875 260.109375 152.101562 259.660156 152.191406 C 259.210938 152.28125 258.757812 152.324219 258.300781 152.324219 C 257.84375 152.324219 257.386719 152.28125 256.9375 152.191406 C 256.488281 152.101562 256.054688 151.96875 255.628906 151.792969 C 255.207031 151.617188 254.804688 151.402344 254.425781 151.148438 C 254.042969 150.894531 253.691406 150.605469 253.367188 150.28125 C 253.042969 149.957031 252.753906 149.605469 252.5 149.226562 C 252.246094 148.84375 252.03125 148.441406 251.855469 148.019531 C 251.679688 147.597656 251.546875 147.160156 251.460938 146.710938 C 251.371094 146.261719 251.324219 145.808594 251.324219 145.351562 C 251.324219 144.890625 251.371094 144.4375 251.460938 143.988281 C 251.546875 143.539062 251.679688 143.105469 251.855469 142.679688 C 252.03125 142.257812 252.246094 141.855469 252.5 141.476562 C 252.753906 141.09375 253.042969 140.742188 253.367188 140.417969 C 253.691406 140.09375 254.042969 139.804688 254.425781 139.550781 C 254.804688 139.296875 255.207031 139.082031 255.628906 138.90625 C 256.054688 138.730469 256.488281 138.597656 256.9375 138.507812 C 257.386719 138.417969 257.84375 138.375 258.300781 138.375 C 258.757812 138.375 259.210938 138.417969 259.660156 138.507812 C 260.109375 138.597656 260.546875 138.730469 260.96875 138.90625 C 261.390625 139.082031 261.792969 139.296875 262.175781 139.550781 C 262.554688 139.804688 262.90625 140.09375 263.230469 140.417969 C 263.554688 140.742188 263.84375 141.09375 264.097656 141.476562 C 264.355469 141.855469 264.570312 142.257812 264.742188 142.679688 C 264.917969 143.105469 265.050781 143.539062 265.140625 143.988281 C 265.230469 144.4375 265.273438 144.890625 265.273438 145.351562 Z M 265.273438 145.351562 " fill-opacity="1" fill-rule="nonzero"/><path fill="#8bc53f" d="M 120.300781 6.976562 C 120.300781 7.433594 120.253906 7.886719 120.164062 8.335938 C 120.078125 8.785156 119.945312 9.222656 119.769531 9.644531 C 119.59375 10.066406 119.378906 10.46875 119.125 10.851562 C 118.871094 11.230469 118.582031 11.582031 118.257812 11.90625 C 117.933594 12.230469 117.582031 12.519531 117.199219 12.773438 C 116.820312 13.027344 116.417969 13.242188 115.996094 13.417969 C 115.570312 13.59375 115.136719 13.726562 114.6875 13.816406 C 114.238281 13.90625 113.78125 13.949219 113.324219 13.949219 C 112.867188 13.949219 112.414062 13.90625 111.964844 13.816406 C 111.515625 13.726562 111.078125 13.59375 110.65625 13.417969 C 110.234375 13.242188 109.832031 13.027344 109.449219 12.773438 C 109.070312 12.519531 108.714844 12.230469 108.394531 11.90625 C 108.070312 11.582031 107.78125 11.230469 107.527344 10.851562 C 107.269531 10.46875 107.054688 10.066406 106.882812 9.644531 C 106.707031 9.222656 106.574219 8.785156 106.484375 8.335938 C 106.394531 7.886719 106.351562 7.433594 106.351562 6.976562 C 106.351562 6.515625 106.394531 6.0625 106.484375 5.613281 C 106.574219 5.164062 106.707031 4.730469 106.882812 4.304688 C 107.054688 3.882812 107.269531 3.480469 107.527344 3.101562 C 107.78125 2.71875 108.070312 2.367188 108.394531 2.042969 C 108.714844 1.71875 109.070312 1.429688 109.449219 1.175781 C 109.832031 0.921875 110.234375 0.707031 110.65625 0.53125 C 111.078125 0.355469 111.515625 0.222656 111.964844 0.132812 C 112.414062 0.0429688 112.867188 0 113.324219 0 C 113.78125 0 114.238281 0.0429688 114.6875 0.132812 C 115.136719 0.222656 115.570312 0.355469 115.996094 0.53125 C 116.417969 0.707031 116.820312 0.921875 117.199219 1.175781 C 117.582031 1.429688 117.933594 1.71875 118.257812 2.042969 C 118.582031 2.367188 118.871094 2.71875 119.125 3.101562 C 119.378906 3.480469 119.59375 3.882812 119.769531 4.304688 C 119.945312 4.730469 120.078125 5.164062 120.164062 5.613281 C 120.253906 6.0625 120.300781 6.515625 120.300781 6.976562 Z M 120.300781 6.976562 " fill-opacity="1" fill-rule="nonzero"/></g></g></g></svg>