<svg xmlns="http://www.w3.org/2000/svg" xmlns:xlink="http://www.w3.org/1999/xlink" width="500" zoomAndPan="magnify" viewBox="0 0 375 374.999991" height="500" preserveAspectRatio="xMidYMid meet" version="1.0"><defs><clipPath id="ed8cf3ebe4"><path d="M 196 129 L 323.9375 129 L 323.9375 233 L 196 233 Z M 196 129 " clip-rule="nonzero"/></clipPath><clipPath id="dd278da71c"><path d="M 196 129 L 323.9375 129 L 323.9375 209 L 196 209 Z M 196 129 " clip-rule="nonzero"/></clipPath><clipPath id="b3cf897ff3"><path d="M 50.9375 130 L 68 130 L 68 148 L 50.9375 148 Z M 50.9375 130 " clip-rule="nonzero"/></clipPath></defs><path fill="#8dc63f" d="M 174.085938 219.554688 C 172.007812 219.554688 169.933594 218.40625 168.929688 216.402344 C 165.78125 210.097656 150.242188 208.164062 143.15625 208.308594 C 140.003906 208.234375 137.425781 205.800781 137.355469 202.648438 C 137.285156 199.496094 139.859375 196.917969 143.011719 196.847656 C 145.945312 196.847656 171.9375 196.847656 179.167969 211.316406 C 180.601562 214.179688 179.453125 217.621094 176.589844 219.050781 C 175.804688 219.410156 174.945312 219.554688 174.085938 219.554688 Z M 174.085938 219.554688 " fill-opacity="1" fill-rule="nonzero"/><path fill="#8dc63f" d="M 222.984375 374.914062 L 145.730469 374.914062 C 142.796875 374.914062 140.363281 372.695312 140.003906 369.757812 L 133.847656 311.738281 L 124.683594 311.738281 C 121.53125 311.738281 118.953125 309.160156 118.953125 306.007812 L 118.953125 280.867188 C 118.953125 277.714844 121.53125 275.136719 124.683594 275.136719 L 243.535156 275.136719 C 246.683594 275.136719 249.261719 277.714844 249.261719 280.867188 L 249.261719 305.9375 C 249.261719 309.089844 246.683594 311.667969 243.535156 311.667969 L 234.871094 311.667969 L 228.714844 369.6875 C 228.355469 372.695312 225.921875 374.914062 222.984375 374.914062 Z M 150.886719 363.382812 L 217.832031 363.382812 L 223.34375 311.667969 L 173.941406 311.667969 C 170.792969 311.667969 168.214844 309.089844 168.214844 305.9375 C 168.214844 302.785156 170.792969 300.207031 173.941406 300.207031 L 237.804688 300.207031 L 237.804688 286.527344 L 130.410156 286.527344 L 130.410156 300.207031 L 139.003906 300.207031 C 141.9375 300.207031 144.371094 302.425781 144.730469 305.363281 Z M 150.886719 363.382812 " fill-opacity="1" fill-rule="nonzero"/><path fill="#00a14b" d="M 243.535156 311.738281 L 173.941406 311.738281 C 170.792969 311.738281 168.214844 309.160156 168.214844 306.007812 C 168.214844 302.855469 170.792969 300.277344 173.941406 300.277344 L 237.804688 300.277344 L 237.804688 296.480469 C 237.804688 293.332031 240.382812 290.75 243.535156 290.75 C 246.683594 290.75 249.261719 293.332031 249.261719 296.480469 L 249.261719 305.9375 C 249.261719 309.160156 246.683594 311.738281 243.535156 311.738281 Z M 243.535156 311.738281 " fill-opacity="1" fill-rule="nonzero"/><path fill="#00a14b" d="M 222.984375 374.914062 L 145.730469 374.914062 C 142.796875 374.914062 140.363281 372.695312 140.003906 369.757812 L 135.996094 332.152344 C 135.636719 329 137.929688 326.207031 141.078125 325.847656 C 144.230469 325.5625 147.019531 327.785156 147.378906 330.933594 L 150.816406 363.382812 L 217.757812 363.382812 L 223.773438 306.582031 C 224.132812 303.429688 226.921875 301.136719 230.074219 301.496094 C 233.222656 301.855469 235.515625 304.648438 235.15625 307.800781 L 228.570312 369.683594 C 228.355469 372.695312 225.921875 374.914062 222.984375 374.914062 Z M 222.984375 374.914062 " fill-opacity="1" fill-rule="nonzero"/><path fill="#00a14b" d="M 180.242188 268.546875 C 177.234375 268.546875 174.65625 266.183594 174.515625 263.101562 C 171.792969 214.46875 161.125 186.390625 154.96875 174.070312 C 153.535156 171.203125 154.753906 167.765625 157.546875 166.40625 C 160.410156 164.972656 163.847656 166.191406 165.207031 168.984375 C 171.722656 182.164062 183.035156 211.816406 185.898438 262.457031 C 186.042969 265.609375 183.679688 268.332031 180.457031 268.476562 C 180.457031 268.546875 180.3125 268.546875 180.242188 268.546875 Z M 180.242188 268.546875 " fill-opacity="1" fill-rule="nonzero"/><path fill="#8dc63f" d="M 153.320312 179.082031 C 150.242188 179.082031 146.949219 178.4375 143.65625 177.148438 C 131.484375 172.351562 120.601562 159.886719 116.519531 146.207031 C 108.714844 119.847656 115.089844 100.867188 115.375 100.078125 C 116.378906 97.214844 119.457031 95.566406 122.390625 96.425781 C 123.25 96.710938 143.726562 102.800781 160.625 121.28125 C 171.222656 132.882812 174.226562 149.144531 172.582031 160.175781 C 171.433594 167.839844 168 173.710938 162.914062 176.648438 C 160.050781 178.222656 156.757812 179.082031 153.320312 179.082031 Z M 124.898438 109.605469 C 123.824219 116.335938 123.179688 128.300781 127.476562 142.839844 C 130.554688 153.15625 138.929688 162.894531 147.808594 166.40625 C 149.957031 167.265625 154.039062 168.410156 157.042969 166.621094 C 158.976562 165.472656 160.480469 162.394531 161.125 158.3125 C 162.34375 150.289062 160.050781 137.609375 152.03125 128.871094 C 142.511719 118.488281 131.414062 112.542969 124.898438 109.605469 Z M 124.898438 109.605469 " fill-opacity="1" fill-rule="nonzero"/><path fill="#00a14b" d="M 153.320312 179.082031 C 150.242188 179.082031 146.949219 178.4375 143.65625 177.148438 C 131.484375 172.351562 120.601562 159.886719 116.519531 146.207031 C 115.589844 143.199219 117.378906 139.976562 120.386719 139.042969 C 123.394531 138.113281 126.617188 139.902344 127.546875 142.910156 C 130.625 153.226562 139.003906 162.96875 147.878906 166.476562 C 150.027344 167.335938 154.109375 168.484375 157.117188 166.691406 C 159.050781 165.546875 160.554688 162.464844 161.195312 158.382812 C 162.414062 150.359375 160.125 137.683594 152.105469 128.945312 C 149.957031 126.582031 150.097656 123 152.460938 120.851562 C 154.824219 118.703125 158.40625 118.917969 160.554688 121.207031 C 171.148438 132.8125 174.15625 149.070312 172.507812 160.101562 C 171.363281 167.765625 167.925781 173.640625 162.84375 176.578125 C 159.980469 178.222656 156.757812 179.082031 153.320312 179.082031 Z M 153.320312 179.082031 " fill-opacity="1" fill-rule="nonzero"/><path fill="#8dc63f" d="M 114.660156 228.792969 C 113.15625 228.792969 111.582031 228.722656 110.078125 228.507812 C 88.097656 225.855469 76.140625 214.96875 75.636719 214.539062 C 73.417969 212.460938 73.132812 209.023438 75.136719 206.660156 C 75.566406 206.085938 86.664062 192.90625 105.710938 186.390625 C 117.808594 182.234375 130.984375 185.242188 138.714844 190.113281 C 144.230469 193.550781 147.59375 198.207031 148.167969 203.152344 C 148.8125 208.378906 146.664062 213.75 142.152344 218.265625 C 135.492188 224.855469 124.898438 228.792969 114.660156 228.792969 Z M 88.382812 209.597656 C 93.035156 212.320312 100.839844 215.902344 111.4375 217.191406 C 120.457031 218.265625 129.621094 214.46875 133.917969 210.171875 C 135.0625 209.023438 136.925781 206.804688 136.640625 204.511719 C 136.496094 203.4375 135.351562 201.648438 132.488281 199.785156 C 127.261719 196.488281 117.808594 194.339844 109.289062 197.207031 C 99.839844 200.570312 92.679688 205.800781 88.382812 209.597656 Z M 88.382812 209.597656 " fill-opacity="1" fill-rule="nonzero"/><path fill="#00a14b" d="M 114.660156 228.792969 C 113.15625 228.792969 111.582031 228.722656 110.078125 228.507812 C 106.925781 228.148438 104.707031 225.285156 105.066406 222.132812 C 105.421875 218.980469 108.285156 216.761719 111.4375 217.117188 C 120.457031 218.191406 129.621094 214.394531 133.917969 210.097656 C 135.0625 208.953125 136.925781 206.730469 136.640625 204.441406 C 136.496094 203.367188 135.351562 201.574219 132.488281 199.710938 C 127.261719 196.417969 117.808594 194.269531 109.289062 197.132812 C 106.28125 198.136719 103.058594 196.5625 101.984375 193.550781 C 100.984375 190.542969 102.558594 187.320312 105.566406 186.246094 C 117.667969 182.09375 130.839844 185.101562 138.574219 189.972656 C 144.085938 193.410156 147.449219 198.066406 148.023438 203.007812 C 148.667969 208.234375 146.519531 213.609375 142.007812 218.121094 C 135.492188 224.855469 124.898438 228.792969 114.660156 228.792969 Z M 114.660156 228.792969 " fill-opacity="1" fill-rule="nonzero"/><g clip-path="url(#ed8cf3ebe4)"><path fill="#8dc63f" d="M 244.179688 232.445312 C 241.3125 232.445312 238.738281 232.160156 236.445312 231.730469 C 222.914062 229.152344 210.382812 219.480469 202.9375 205.871094 C 195.707031 192.621094 194.347656 176.792969 199.214844 163.539062 C 202.652344 154.230469 210.886719 141.550781 230.289062 134.171875 C 256.207031 124.359375 316.347656 133.886719 318.925781 134.316406 C 320.644531 134.601562 322.074219 135.605469 322.933594 137.109375 C 323.792969 138.613281 323.9375 140.40625 323.363281 141.980469 C 322.503906 144.34375 301.886719 199.210938 279.261719 218.121094 C 265.800781 229.367188 253.558594 232.445312 244.179688 232.445312 Z M 264.226562 141.191406 C 252.625 141.191406 241.671875 142.125 234.371094 144.917969 C 222.199219 149.574219 213.75 157.378906 209.953125 167.480469 C 206.160156 177.722656 207.304688 189.972656 212.960938 200.355469 C 218.761719 211.03125 228.355469 218.480469 238.59375 220.484375 C 249.40625 222.5625 260.574219 218.765625 271.957031 209.3125 C 287.996094 195.917969 303.960938 159.671875 310.046875 144.628906 C 300.09375 143.269531 281.480469 141.191406 264.226562 141.191406 Z M 264.226562 141.191406 " fill-opacity="1" fill-rule="nonzero"/></g><g clip-path="url(#dd278da71c)"><path fill="#00a14b" d="M 207.949219 208.882812 C 205.945312 208.882812 203.941406 207.804688 202.9375 205.871094 C 195.707031 192.621094 194.347656 176.792969 199.214844 163.539062 C 202.652344 154.230469 210.886719 141.550781 230.289062 134.171875 C 256.207031 124.359375 316.347656 133.886719 318.925781 134.316406 C 320.644531 134.601562 322.074219 135.605469 322.933594 137.109375 C 323.792969 138.613281 323.9375 140.40625 323.363281 141.980469 C 323.078125 142.695312 316.492188 160.390625 306.683594 179.296875 C 305.25 182.09375 301.742188 183.238281 298.949219 181.734375 C 296.15625 180.300781 295.011719 176.792969 296.515625 174 C 302.457031 162.609375 307.183594 151.433594 309.976562 144.558594 C 293.507812 142.339844 252.625 137.898438 234.371094 144.84375 C 222.199219 149.5 213.75 157.308594 209.953125 167.410156 C 206.160156 177.652344 207.304688 189.898438 212.960938 200.285156 C 214.464844 203.078125 213.464844 206.515625 210.671875 208.09375 C 209.8125 208.59375 208.878906 208.882812 207.949219 208.882812 Z M 207.949219 208.882812 " fill-opacity="1" fill-rule="nonzero"/></g><path fill="#00a14b" d="M 253.269531 205.945312 C 252.554688 205.945312 251.765625 205.800781 251.050781 205.515625 L 228.714844 196.058594 C 225.777344 194.84375 224.417969 191.476562 225.632812 188.539062 C 226.851562 185.601562 230.214844 184.242188 233.152344 185.457031 L 255.492188 194.914062 C 258.425781 196.132812 259.785156 199.496094 258.570312 202.433594 C 257.636719 204.582031 255.492188 205.945312 253.269531 205.945312 Z M 253.269531 205.945312 " fill-opacity="1" fill-rule="nonzero"/><path fill="#8dc63f" d="M 250.265625 183.8125 C 250.121094 183.8125 250.050781 183.8125 249.90625 183.8125 C 246.753906 183.597656 244.320312 180.875 244.535156 177.722656 L 245.683594 159.097656 C 245.898438 155.949219 248.617188 153.585938 251.765625 153.726562 C 254.917969 153.941406 257.351562 156.664062 257.136719 159.816406 L 255.992188 178.4375 C 255.777344 181.449219 253.269531 183.8125 250.265625 183.8125 Z M 250.265625 183.8125 " fill-opacity="1" fill-rule="nonzero"/><path fill="#00a14b" d="M 178.378906 237.175781 C 177.449219 237.175781 176.519531 236.960938 175.660156 236.457031 C 172.867188 234.953125 171.863281 231.445312 173.367188 228.648438 C 181.601562 213.464844 201.363281 200.285156 202.222656 199.710938 C 202.292969 199.640625 202.4375 199.570312 202.507812 199.496094 L 277.183594 156.59375 C 279.90625 155.015625 283.414062 155.949219 284.988281 158.742188 C 286.5625 161.464844 285.632812 164.972656 282.839844 166.550781 L 208.378906 209.382812 C 206.660156 210.527344 189.980469 222.058594 183.390625 234.164062 C 182.390625 236.097656 180.386719 237.175781 178.378906 237.175781 Z M 178.378906 237.175781 " fill-opacity="1" fill-rule="nonzero"/><path fill="#8dc63f" d="M 225.492188 61.6875 C 225.492188 62.230469 225.4375 62.769531 225.332031 63.304688 C 225.226562 63.839844 225.066406 64.359375 224.859375 64.867188 C 224.652344 65.371094 224.394531 65.847656 224.089844 66.300781 C 223.789062 66.753906 223.445312 67.175781 223.058594 67.5625 C 222.671875 67.945312 222.253906 68.292969 221.800781 68.59375 C 221.347656 68.898438 220.867188 69.152344 220.363281 69.363281 C 219.859375 69.570312 219.339844 69.726562 218.804688 69.835938 C 218.273438 69.941406 217.730469 69.996094 217.1875 69.996094 C 216.640625 69.996094 216.101562 69.941406 215.566406 69.835938 C 215.03125 69.726562 214.511719 69.570312 214.007812 69.363281 C 213.503906 69.152344 213.023438 68.898438 212.570312 68.59375 C 212.117188 68.292969 211.699219 67.945312 211.3125 67.5625 C 210.929688 67.175781 210.582031 66.753906 210.28125 66.300781 C 209.976562 65.847656 209.722656 65.371094 209.511719 64.867188 C 209.304688 64.359375 209.148438 63.839844 209.039062 63.304688 C 208.933594 62.769531 208.878906 62.230469 208.878906 61.6875 C 208.878906 61.140625 208.933594 60.601562 209.039062 60.066406 C 209.148438 59.53125 209.304688 59.011719 209.511719 58.507812 C 209.722656 58 209.976562 57.523438 210.28125 57.070312 C 210.582031 56.617188 210.929688 56.195312 211.3125 55.808594 C 211.699219 55.425781 212.117188 55.082031 212.570312 54.777344 C 213.023438 54.472656 213.503906 54.21875 214.007812 54.007812 C 214.511719 53.800781 215.03125 53.644531 215.566406 53.535156 C 216.101562 53.429688 216.640625 53.375 217.1875 53.375 C 217.730469 53.375 218.273438 53.429688 218.804688 53.535156 C 219.339844 53.644531 219.859375 53.800781 220.363281 54.007812 C 220.867188 54.21875 221.347656 54.472656 221.800781 54.777344 C 222.253906 55.082031 222.671875 55.425781 223.058594 55.808594 C 223.445312 56.195312 223.789062 56.617188 224.089844 57.070312 C 224.394531 57.523438 224.652344 58 224.859375 58.507812 C 225.066406 59.011719 225.226562 59.53125 225.332031 60.066406 C 225.4375 60.601562 225.492188 61.140625 225.492188 61.6875 Z M 225.492188 61.6875 " fill-opacity="1" fill-rule="nonzero"/><path fill="#00a14b" d="M 152.105469 8.394531 C 152.105469 8.941406 152.050781 9.480469 151.945312 10.015625 C 151.839844 10.550781 151.679688 11.070312 151.472656 11.574219 C 151.261719 12.078125 151.007812 12.558594 150.703125 13.011719 C 150.402344 13.464844 150.058594 13.882812 149.671875 14.269531 C 149.285156 14.65625 148.867188 15 148.414062 15.304688 C 147.960938 15.605469 147.480469 15.863281 146.976562 16.070312 C 146.472656 16.28125 145.953125 16.4375 145.417969 16.542969 C 144.882812 16.648438 144.34375 16.703125 143.800781 16.703125 C 143.253906 16.703125 142.714844 16.648438 142.179688 16.542969 C 141.644531 16.4375 141.125 16.28125 140.621094 16.070312 C 140.117188 15.863281 139.636719 15.605469 139.183594 15.304688 C 138.730469 15 138.3125 14.65625 137.925781 14.269531 C 137.539062 13.882812 137.195312 13.464844 136.894531 13.011719 C 136.589844 12.558594 136.335938 12.078125 136.125 11.574219 C 135.917969 11.070312 135.757812 10.550781 135.652344 10.015625 C 135.546875 9.480469 135.492188 8.941406 135.492188 8.394531 C 135.492188 7.847656 135.546875 7.308594 135.652344 6.773438 C 135.757812 6.238281 135.917969 5.71875 136.125 5.214844 C 136.335938 4.710938 136.589844 4.230469 136.894531 3.777344 C 137.195312 3.324219 137.539062 2.90625 137.925781 2.519531 C 138.3125 2.132812 138.730469 1.789062 139.183594 1.484375 C 139.636719 1.183594 140.117188 0.925781 140.621094 0.71875 C 141.125 0.507812 141.644531 0.351562 142.179688 0.246094 C 142.714844 0.140625 143.253906 0.0859375 143.800781 0.0859375 C 144.34375 0.0859375 144.882812 0.140625 145.417969 0.246094 C 145.953125 0.351562 146.472656 0.507812 146.976562 0.71875 C 147.480469 0.925781 147.960938 1.183594 148.414062 1.484375 C 148.867188 1.789062 149.285156 2.132812 149.671875 2.519531 C 150.058594 2.90625 150.402344 3.324219 150.703125 3.777344 C 151.007812 4.230469 151.261719 4.710938 151.472656 5.214844 C 151.679688 5.71875 151.839844 6.238281 151.945312 6.773438 C 152.050781 7.308594 152.105469 7.847656 152.105469 8.394531 Z M 152.105469 8.394531 " fill-opacity="1" fill-rule="nonzero"/><g clip-path="url(#b3cf897ff3)"><path fill="#00a14b" d="M 67.546875 139.257812 C 67.546875 139.804688 67.496094 140.34375 67.386719 140.878906 C 67.28125 141.414062 67.125 141.933594 66.914062 142.4375 C 66.707031 142.941406 66.453125 143.421875 66.148438 143.875 C 65.84375 144.328125 65.5 144.746094 65.117188 145.132812 C 64.730469 145.519531 64.308594 145.863281 63.855469 146.167969 C 63.402344 146.46875 62.925781 146.726562 62.421875 146.933594 C 61.917969 147.144531 61.398438 147.300781 60.863281 147.40625 C 60.328125 147.515625 59.789062 147.566406 59.242188 147.566406 C 58.699219 147.566406 58.15625 147.515625 57.621094 147.40625 C 57.085938 147.300781 56.566406 147.144531 56.066406 146.933594 C 55.5625 146.726562 55.082031 146.46875 54.628906 146.167969 C 54.175781 145.863281 53.753906 145.519531 53.371094 145.132812 C 52.984375 144.746094 52.640625 144.328125 52.335938 143.875 C 52.035156 143.421875 51.777344 142.941406 51.570312 142.4375 C 51.359375 141.933594 51.203125 141.414062 51.097656 140.878906 C 50.992188 140.34375 50.9375 139.804688 50.9375 139.257812 C 50.9375 138.714844 50.992188 138.171875 51.097656 137.636719 C 51.203125 137.101562 51.359375 136.582031 51.570312 136.078125 C 51.777344 135.574219 52.035156 135.097656 52.335938 134.640625 C 52.640625 134.1875 52.984375 133.769531 53.371094 133.382812 C 53.753906 132.996094 54.175781 132.652344 54.628906 132.351562 C 55.082031 132.046875 55.5625 131.789062 56.066406 131.582031 C 56.566406 131.375 57.085938 131.214844 57.621094 131.109375 C 58.15625 131.003906 58.699219 130.949219 59.242188 130.949219 C 59.789062 130.949219 60.328125 131.003906 60.863281 131.109375 C 61.398438 131.214844 61.917969 131.375 62.421875 131.582031 C 62.925781 131.789062 63.402344 132.046875 63.855469 132.351562 C 64.308594 132.652344 64.730469 132.996094 65.117188 133.382812 C 65.5 133.769531 65.84375 134.1875 66.148438 134.640625 C 66.453125 135.097656 66.707031 135.574219 66.914062 136.078125 C 67.125 136.582031 67.28125 137.101562 67.386719 137.636719 C 67.496094 138.171875 67.546875 138.714844 67.546875 139.257812 Z M 67.546875 139.257812 " fill-opacity="1" fill-rule="nonzero"/></g><path fill="#8dc63f" d="M 84.375 99.578125 C 84.375 100.121094 84.320312 100.664062 84.214844 101.199219 C 84.105469 101.734375 83.949219 102.253906 83.742188 102.757812 C 83.53125 103.261719 83.277344 103.738281 82.972656 104.191406 C 82.671875 104.648438 82.328125 105.066406 81.941406 105.453125 C 81.554688 105.835938 81.136719 106.183594 80.683594 106.484375 C 80.230469 106.789062 79.75 107.042969 79.246094 107.253906 C 78.742188 107.460938 78.222656 107.621094 77.6875 107.726562 C 77.152344 107.832031 76.613281 107.886719 76.066406 107.886719 C 75.523438 107.886719 74.984375 107.832031 74.449219 107.726562 C 73.914062 107.621094 73.394531 107.460938 72.890625 107.253906 C 72.386719 107.042969 71.90625 106.789062 71.453125 106.484375 C 71 106.183594 70.582031 105.835938 70.195312 105.453125 C 69.808594 105.066406 69.464844 104.648438 69.164062 104.191406 C 68.859375 103.738281 68.605469 103.261719 68.394531 102.757812 C 68.1875 102.253906 68.027344 101.734375 67.921875 101.199219 C 67.816406 100.664062 67.761719 100.121094 67.761719 99.578125 C 67.761719 99.03125 67.816406 98.492188 67.921875 97.957031 C 68.027344 97.421875 68.1875 96.902344 68.394531 96.398438 C 68.605469 95.894531 68.859375 95.414062 69.164062 94.960938 C 69.464844 94.507812 69.808594 94.085938 70.195312 93.703125 C 70.582031 93.316406 71 92.972656 71.453125 92.667969 C 71.90625 92.363281 72.386719 92.109375 72.890625 91.898438 C 73.394531 91.691406 73.914062 91.535156 74.449219 91.425781 C 74.984375 91.320312 75.523438 91.269531 76.066406 91.269531 C 76.613281 91.269531 77.152344 91.320312 77.6875 91.425781 C 78.222656 91.535156 78.742188 91.691406 79.246094 91.898438 C 79.75 92.109375 80.230469 92.363281 80.683594 92.667969 C 81.136719 92.972656 81.554688 93.316406 81.941406 93.703125 C 82.328125 94.085938 82.671875 94.507812 82.972656 94.960938 C 83.277344 95.414062 83.53125 95.894531 83.742188 96.398438 C 83.949219 96.902344 84.105469 97.421875 84.214844 97.957031 C 84.320312 98.492188 84.375 99.03125 84.375 99.578125 Z M 84.375 99.578125 " fill-opacity="1" fill-rule="nonzero"/><path fill="#00a14b" d="M 292.21875 15.628906 C 292.21875 16.175781 292.167969 16.714844 292.058594 17.25 C 291.953125 17.785156 291.796875 18.304688 291.585938 18.808594 C 291.378906 19.3125 291.125 19.792969 290.820312 20.246094 C 290.515625 20.699219 290.171875 21.117188 289.789062 21.503906 C 289.402344 21.890625 288.980469 22.234375 288.527344 22.539062 C 288.074219 22.839844 287.597656 23.097656 287.09375 23.304688 C 286.589844 23.515625 286.070312 23.671875 285.535156 23.777344 C 285 23.882812 284.460938 23.9375 283.914062 23.9375 C 283.371094 23.9375 282.828125 23.882812 282.292969 23.777344 C 281.757812 23.671875 281.238281 23.515625 280.738281 23.304688 C 280.234375 23.097656 279.753906 22.839844 279.300781 22.539062 C 278.847656 22.234375 278.425781 21.890625 278.042969 21.503906 C 277.65625 21.117188 277.3125 20.699219 277.007812 20.246094 C 276.707031 19.792969 276.449219 19.3125 276.242188 18.808594 C 276.03125 18.304688 275.875 17.785156 275.769531 17.25 C 275.664062 16.714844 275.609375 16.175781 275.609375 15.628906 C 275.609375 15.082031 275.664062 14.542969 275.769531 14.007812 C 275.875 13.472656 276.03125 12.953125 276.242188 12.449219 C 276.449219 11.945312 276.707031 11.464844 277.007812 11.011719 C 277.3125 10.558594 277.65625 10.140625 278.042969 9.753906 C 278.425781 9.367188 278.847656 9.023438 279.300781 8.71875 C 279.753906 8.417969 280.234375 8.160156 280.738281 7.953125 C 281.238281 7.742188 281.757812 7.585938 282.292969 7.480469 C 282.828125 7.375 283.371094 7.320312 283.914062 7.320312 C 284.460938 7.320312 285 7.375 285.535156 7.480469 C 286.070312 7.585938 286.589844 7.742188 287.09375 7.953125 C 287.597656 8.160156 288.074219 8.417969 288.527344 8.71875 C 288.980469 9.023438 289.402344 9.367188 289.789062 9.753906 C 290.171875 10.140625 290.515625 10.558594 290.820312 11.011719 C 291.125 11.464844 291.378906 11.945312 291.585938 12.449219 C 291.796875 12.953125 291.953125 13.472656 292.058594 14.007812 C 292.167969 14.542969 292.21875 15.082031 292.21875 15.628906 Z M 292.21875 15.628906 " fill-opacity="1" fill-rule="nonzero"/></svg>