<?xml version="1.0" encoding="UTF-8"?>
<svg xmlns="http://www.w3.org/2000/svg" xmlns:xlink="http://www.w3.org/1999/xlink" width="4000px" height="700px" viewBox="0 0 4000 700" version="1.1">
<g id="surface1">
<path style=" stroke:none;fill-rule:nonzero;fill:rgb(38.039216%,86.666667%,88.235294%);fill-opacity:1;" d="M 688.019531 122.960938 L 575.261719 235.980469 L 462.238281 122.960938 L 575.261719 10 Z M 688.019531 122.960938 "/>
<path style=" stroke:none;fill-rule:nonzero;fill:rgb(37.647059%,37.647059%,37.647059%);fill-opacity:1;" d="M 575.238281 245.960938 L 452.039062 122.960938 L 575.238281 0 L 698.199219 122.960938 Z M 471.980469 122.960938 L 575.238281 226.019531 L 678.261719 122.960938 L 575.238281 19.941406 Z M 471.980469 122.960938 "/>
<path style=" stroke:none;fill-rule:nonzero;fill:rgb(100%,100%,100%);fill-opacity:1;" d="M 575.238281 235.980469 L 461.980469 348.960938 L 348.960938 235.941406 L 461.980469 122.960938 Z M 575.238281 235.980469 "/>
<path style=" stroke:none;fill-rule:nonzero;fill:rgb(37.647059%,37.647059%,37.647059%);fill-opacity:1;" d="M 462 358.921875 L 339.039062 235.960938 L 462 113 L 584.921875 235.960938 Z M 358.980469 235.960938 L 462 339.019531 L 565.058594 235.960938 L 462 132.941406 Z M 358.980469 235.960938 "/>
<path style=" stroke:none;fill-rule:nonzero;fill:rgb(100%,72.54902%,30.196078%);fill-opacity:1;" d="M 236.011719 348.980469 L 349.003906 235.984375 L 462 348.980469 L 349.003906 461.976562 Z M 236.011719 348.980469 "/>
<path style=" stroke:none;fill-rule:nonzero;fill:rgb(37.647059%,37.647059%,37.647059%);fill-opacity:1;" d="M 349 471.960938 L 226.039062 349 L 349 226.039062 L 472 349 Z M 245.980469 349 L 349 452.019531 L 452.058594 349 L 349 245.980469 Z M 245.980469 349 "/>
<path style=" stroke:none;fill-rule:nonzero;fill:rgb(100%,100%,100%);fill-opacity:1;" d="M 122.976562 462.007812 L 235.96875 349.011719 L 348.964844 462.007812 L 235.96875 575.003906 Z M 122.976562 462.007812 "/>
<path style=" stroke:none;fill-rule:nonzero;fill:rgb(37.647059%,37.647059%,37.647059%);fill-opacity:1;" d="M 236.039062 584.960938 L 113.039062 462 L 236.039062 339.039062 L 359 462 Z M 132.980469 462 L 236.039062 565.019531 L 339.058594 462 L 236.039062 358.941406 Z M 132.980469 462 "/>
<path style=" stroke:none;fill-rule:nonzero;fill:rgb(100%,100%,100%);fill-opacity:1;" d="M 574.988281 236.023438 L 687.984375 123.027344 L 800.980469 236.023438 L 687.984375 349.019531 Z M 574.988281 236.023438 "/>
<path style=" stroke:none;fill-rule:nonzero;fill:rgb(37.647059%,37.647059%,37.647059%);fill-opacity:1;" d="M 688.039062 358.921875 L 565.078125 235.960938 L 688.039062 113 L 811 235.960938 Z M 584.921875 235.960938 L 687.980469 339.019531 L 791 235.960938 L 687.980469 132.941406 Z M 584.921875 235.960938 "/>
<path style=" stroke:none;fill-rule:nonzero;fill:rgb(100%,72.54902%,30.196078%);fill-opacity:1;" d="M 462.039062 349.015625 L 575.035156 236.023438 L 688.027344 349.015625 L 575.035156 462.011719 Z M 462.039062 349.015625 "/>
<path style=" stroke:none;fill-rule:nonzero;fill:rgb(37.647059%,37.647059%,37.647059%);fill-opacity:1;" d="M 575.238281 471.960938 L 452.039062 349 L 575.238281 226.039062 L 697.960938 349 Z M 471.980469 349 L 575.238281 452.019531 L 678.019531 349 L 575.238281 245.980469 Z M 471.980469 349 "/>
<path style=" stroke:none;fill-rule:nonzero;fill:rgb(100%,100%,100%);fill-opacity:1;" d="M 349.03125 462 L 462.027344 349.003906 L 575.023438 462 L 462.027344 574.996094 Z M 349.03125 462 "/>
<path style=" stroke:none;fill-rule:nonzero;fill:rgb(37.647059%,37.647059%,37.647059%);fill-opacity:1;" d="M 462 584.960938 L 339.039062 462 L 462 339.039062 L 584.921875 462 Z M 358.980469 462 L 462 565.019531 L 565.058594 462 L 462 358.941406 Z M 358.980469 462 "/>
<path style=" stroke:none;fill-rule:nonzero;fill:rgb(100%,72.54902%,30.196078%);fill-opacity:1;" d="M 688.019531 349.023438 L 801.015625 236.03125 L 914.011719 349.023438 L 801.015625 462.019531 Z M 688.019531 349.023438 "/>
<path style=" stroke:none;fill-rule:nonzero;fill:rgb(37.647059%,37.647059%,37.647059%);fill-opacity:1;" d="M 801.039062 471.960938 L 678.039062 349 L 801.039062 226.039062 L 924 349 Z M 697.980469 349 L 801.039062 452.019531 L 904.058594 349 L 801.039062 245.980469 Z M 697.980469 349 "/>
<path style=" stroke:none;fill-rule:nonzero;fill:rgb(100%,100%,100%);fill-opacity:1;" d="M 574.980469 462.003906 L 687.976562 349.007812 L 800.972656 462.003906 L 687.976562 575 Z M 574.980469 462.003906 "/>
<path style=" stroke:none;fill-rule:nonzero;fill:rgb(37.647059%,37.647059%,37.647059%);fill-opacity:1;" d="M 688.039062 584.960938 L 565.078125 462 L 688.039062 339.039062 L 811 462 Z M 584.921875 462 L 687.980469 565.019531 L 791 462 L 687.980469 358.941406 Z M 584.921875 462 "/>
<path style=" stroke:none;fill-rule:nonzero;fill:rgb(100%,100%,100%);fill-opacity:1;" d="M 800.976562 462.007812 L 913.972656 349.011719 L 1026.96875 462.007812 L 913.972656 575.003906 Z M 800.976562 462.007812 "/>
<path style=" stroke:none;fill-rule:nonzero;fill:rgb(37.647059%,37.647059%,37.647059%);fill-opacity:1;" d="M 914 584.960938 L 791.039062 462 L 914 339.039062 L 1037 462 Z M 810.980469 462 L 914 565.019531 L 1017.058594 462 L 914 358.941406 Z M 810.980469 462 "/>
<path style=" stroke:none;fill-rule:nonzero;fill:rgb(38.039216%,86.666667%,88.235294%);fill-opacity:1;" d="M 1140 575 L 1027 687.960938 L 913.980469 575 L 1027 461.980469 Z M 1140 575 "/>
<path style=" stroke:none;fill-rule:nonzero;fill:rgb(37.647059%,37.647059%,37.647059%);fill-opacity:1;" d="M 1027 697.960938 L 904.039062 575 L 1027 452 L 1149.960938 575 Z M 923.980469 575 L 1027 678.019531 L 1130.058594 575 L 1027 471.941406 Z M 923.980469 575 "/>
<path style=" stroke:none;fill-rule:nonzero;fill:rgb(38.039216%,86.666667%,88.235294%);fill-opacity:1;" d="M 687.988281 574.949219 L 800.984375 461.953125 L 913.980469 574.949219 L 800.984375 687.945312 Z M 687.988281 574.949219 "/>
<path style=" stroke:none;fill-rule:nonzero;fill:rgb(37.647059%,37.647059%,37.647059%);fill-opacity:1;" d="M 801.039062 697.960938 L 678.039062 575 L 801.039062 452 L 924 575 Z M 697.980469 575 L 801.039062 678.019531 L 904.058594 575 L 801.039062 471.941406 Z M 697.980469 575 "/>
<path style=" stroke:none;fill-rule:nonzero;fill:rgb(38.039216%,86.666667%,88.235294%);fill-opacity:1;" d="M 462 574.960938 L 574.992188 461.964844 L 687.988281 574.960938 L 574.992188 687.957031 Z M 462 574.960938 "/>
<path style=" stroke:none;fill-rule:nonzero;fill:rgb(37.647059%,37.647059%,37.647059%);fill-opacity:1;" d="M 575.238281 697.960938 L 452.039062 575 L 575.238281 452 L 698.199219 575 Z M 471.980469 575 L 575.238281 678.019531 L 678.261719 575 L 575.238281 471.941406 Z M 471.980469 575 "/>
<path style=" stroke:none;fill-rule:nonzero;fill:rgb(38.039216%,86.666667%,88.235294%);fill-opacity:1;" d="M 236.015625 574.953125 L 349.011719 461.960938 L 462.007812 574.953125 L 349.011719 687.949219 Z M 236.015625 574.953125 "/>
<path style=" stroke:none;fill-rule:nonzero;fill:rgb(37.647059%,37.647059%,37.647059%);fill-opacity:1;" d="M 349 697.960938 L 226.039062 575 L 349 452 L 472 575 Z M 245.980469 575 L 349 678.019531 L 452.058594 575 L 349 471.941406 Z M 245.980469 575 "/>
<path style=" stroke:none;fill-rule:nonzero;fill:rgb(38.039216%,86.666667%,88.235294%);fill-opacity:1;" d="M 9.972656 574.957031 L 122.96875 461.960938 L 235.964844 574.957031 L 122.96875 687.953125 Z M 9.972656 574.957031 "/>
<path style=" stroke:none;fill-rule:nonzero;fill:rgb(37.647059%,37.647059%,37.647059%);fill-opacity:1;" d="M 123 697.960938 L 0 575 L 123 452 L 245.960938 575 Z M 19.839844 575 L 122.898438 678.019531 L 225.921875 575 L 122.898438 471.941406 Z M 19.839844 575 "/>
<path style=" stroke:none;fill-rule:nonzero;fill:rgb(37.647059%,37.647059%,37.647059%);fill-opacity:1;" d="M 1280.640625 658.101562 L 1280.640625 281.820312 C 1280.476562 274.363281 1284.792969 267.53125 1291.601562 264.480469 C 1308.46875 256.785156 1327.847656 256.785156 1344.71875 264.480469 C 1351.542969 267.523438 1355.882812 274.351562 1355.738281 281.820312 L 1355.738281 658.078125 C 1355.664062 665.574219 1351.257812 672.347656 1344.441406 675.460938 C 1327.773438 684.046875 1307.984375 684.046875 1291.320312 675.460938 C 1284.746094 672.179688 1280.605469 665.449219 1280.640625 658.101562 Z M 1280.640625 658.101562 "/>
<path style=" stroke:none;fill-rule:nonzero;fill:rgb(37.647059%,37.647059%,37.647059%);fill-opacity:1;" d="M 1413.699219 658.078125 L 1413.699219 430.078125 C 1413.789062 423.066406 1417.667969 416.652344 1423.839844 413.320312 C 1432.027344 408.699219 1441.351562 406.488281 1450.738281 406.941406 C 1459.011719 406.6875 1467.171875 408.925781 1474.160156 413.359375 C 1480.164062 416.898438 1483.839844 423.351562 1483.820312 430.320312 L 1483.820312 447.859375 C 1490.558594 434.75 1500.871094 423.816406 1513.558594 416.320312 C 1527.933594 407.582031 1544.503906 403.125 1561.320312 403.480469 C 1588.628906 403.816406 1614.285156 416.601562 1631 438.199219 C 1650.820312 461.148438 1661.433594 490.625 1660.800781 520.941406 L 1660.800781 658.039062 C 1660.734375 665.527344 1656.347656 672.300781 1649.539062 675.421875 C 1641.472656 679.800781 1632.398438 682 1623.21875 681.800781 C 1614.230469 681.96875 1605.351562 679.769531 1597.480469 675.421875 C 1590.691406 672.328125 1586.289062 665.601562 1586.179688 658.140625 L 1586.179688 521.179688 C 1586.144531 507.65625 1580.726562 494.699219 1571.121094 485.179688 C 1562.199219 475.054688 1549.351562 469.261719 1535.859375 469.28125 C 1523.230469 469.238281 1511.160156 474.488281 1502.578125 483.761719 C 1492.945312 493.800781 1487.820312 507.335938 1488.378906 521.238281 L 1488.378906 658.058594 C 1487.621094 665 1483.375 671.078125 1477.121094 674.179688 C 1469.304688 679.285156 1460.132812 681.910156 1450.800781 681.71875 C 1441.496094 682.039062 1432.3125 679.515625 1424.480469 674.480469 C 1418.304688 671.230469 1414.234375 665.039062 1413.699219 658.078125 Z M 1413.699219 658.078125 "/>
<path style=" stroke:none;fill-rule:nonzero;fill:rgb(37.647059%,37.647059%,37.647059%);fill-opacity:1;" d="M 1710.199219 589 L 1710.199219 311.640625 C 1710.628906 304.457031 1715.105469 298.144531 1721.738281 295.359375 C 1729.496094 290.949219 1738.277344 288.664062 1747.199219 288.738281 C 1756.386719 288.515625 1765.46875 290.730469 1773.519531 295.160156 C 1779.972656 297.886719 1784.339844 304.011719 1784.820312 311 L 1784.820312 407 L 1853.101562 407 C 1859.007812 407.089844 1864.363281 410.492188 1866.960938 415.800781 C 1873.914062 428.738281 1873.914062 444.300781 1866.960938 457.238281 C 1864.363281 462.546875 1859.007812 465.949219 1853.101562 466.039062 L 1784.558594 466.039062 L 1784.558594 586.78125 C 1783.699219 594.996094 1786.324219 603.195312 1791.800781 609.378906 C 1799.121094 614.53125 1808.050781 616.878906 1816.960938 616 L 1839.519531 616 C 1848.382812 615.519531 1856.992188 619.070312 1862.941406 625.660156 C 1868.527344 632.019531 1871.523438 640.238281 1871.339844 648.699219 C 1871.574219 657.324219 1868.578125 665.730469 1862.941406 672.261719 C 1857.003906 678.867188 1848.386719 682.421875 1839.519531 681.921875 L 1816.960938 681.921875 C 1745.585938 681.734375 1710 650.761719 1710.199219 589 Z M 1710.199219 589 "/>
<path style=" stroke:none;fill-rule:nonzero;fill:rgb(37.647059%,37.647059%,37.647059%);fill-opacity:1;" d="M 1892.160156 568.238281 L 1892.160156 519.019531 C 1892.007812 487.722656 1905.535156 457.921875 1929.199219 437.441406 C 1953.511719 414.824219 1985.683594 402.578125 2018.878906 403.300781 C 2049.863281 402.640625 2079.945312 413.753906 2103.058594 434.398438 C 2125.855469 453.90625 2138.707031 482.605469 2138.078125 512.601562 C 2138.375 522.230469 2136.90625 531.835938 2133.738281 540.941406 C 2131.441406 547.683594 2126.675781 553.308594 2120.398438 556.679688 C 2115.257812 559.46875 2109.699219 561.40625 2103.941406 562.421875 C 2097.421875 563.285156 2090.851562 563.675781 2084.28125 563.578125 L 1966.820312 563.578125 L 1966.820312 572.21875 C 1966.316406 587.796875 1973.167969 602.703125 1985.320312 612.460938 C 1999.363281 623.253906 2016.789062 628.695312 2034.480469 627.820312 C 2049.644531 627.707031 2064.554688 623.925781 2077.941406 616.800781 C 2086.496094 611.550781 2095.894531 607.824219 2105.71875 605.78125 C 2113.949219 605.851562 2121.578125 610.113281 2125.960938 617.078125 C 2130.890625 623.265625 2133.734375 630.855469 2134.078125 638.761719 C 2134.078125 649.574219 2124.421875 660.28125 2105.101562 670.878906 C 2082.671875 682.183594 2057.757812 687.644531 2032.660156 686.761719 C 1996.1875 688.34375 1960.359375 676.761719 1931.71875 654.121094 C 1905.882812 633.214844 1891.257812 601.464844 1892.160156 568.238281 Z M 1966.820312 519.601562 L 2051.28125 519.601562 C 2055.816406 520.019531 2060.367188 518.992188 2064.28125 516.660156 C 2067.191406 513.527344 2068.566406 509.265625 2068.039062 505.019531 C 2068.308594 492.992188 2062.84375 481.550781 2053.320312 474.199219 C 2032.074219 458.515625 2003.085938 458.515625 1981.839844 474.199219 C 1972.132812 481.292969 1966.519531 492.699219 1966.820312 504.71875 Z M 1966.820312 519.601562 "/>
<path style=" stroke:none;fill-rule:nonzero;fill:rgb(37.647059%,37.647059%,37.647059%);fill-opacity:1;" d="M 2176.820312 658.101562 L 2176.820312 430.101562 C 2176.90625 423.085938 2180.789062 416.671875 2186.960938 413.339844 C 2194.953125 408.769531 2204.078125 406.554688 2213.28125 406.960938 C 2221.789062 406.621094 2230.203125 408.859375 2237.421875 413.378906 C 2243.425781 416.914062 2247.105469 423.371094 2247.078125 430.339844 L 2247.078125 454.5 C 2253.628906 440.40625 2263.589844 428.171875 2276.058594 418.898438 C 2287.992188 409.167969 2302.882812 403.800781 2318.28125 403.679688 L 2336.28125 403.679688 C 2343.75 403.929688 2350.683594 407.621094 2355.058594 413.679688 C 2360.332031 419.894531 2363.210938 427.789062 2363.179688 435.941406 C 2363.320312 444.496094 2360.335938 452.808594 2354.78125 459.320312 C 2350.335938 465.253906 2343.410156 468.8125 2336 468.980469 L 2318 468.980469 C 2299.660156 469.265625 2282.480469 477.996094 2271.441406 492.640625 C 2257.527344 510.117188 2250.417969 532.042969 2251.441406 554.359375 L 2251.441406 658.101562 C 2250.621094 665.121094 2246.234375 671.226562 2239.839844 674.238281 C 2231.90625 679.328125 2222.644531 681.953125 2213.21875 681.78125 C 2204.011719 682.117188 2194.925781 679.589844 2187.21875 674.539062 C 2181.1875 671.179688 2177.273438 664.988281 2176.820312 658.101562 Z M 2176.820312 658.101562 "/>
<path style=" stroke:none;fill-rule:nonzero;fill:rgb(37.647059%,37.647059%,37.647059%);fill-opacity:1;" d="M 2363.761719 435.140625 C 2363.761719 427.019531 2369.460938 419.738281 2380.800781 413.140625 C 2390.65625 407.09375 2401.9375 403.757812 2413.5 403.480469 C 2422.855469 402.367188 2431.820312 407.566406 2435.5 416.238281 L 2499.738281 584.019531 L 2563.980469 417.398438 C 2567.007812 408.339844 2575.863281 402.546875 2585.378906 403.398438 C 2596.675781 404.019531 2607.628906 407.511719 2617.199219 413.539062 C 2629.199219 420.300781 2635.199219 427.699219 2635.199219 435.800781 C 2635.183594 439.15625 2634.386719 442.460938 2632.878906 445.460938 L 2533.980469 674.578125 C 2529.738281 683.460938 2518.339844 687.859375 2499.839844 687.859375 C 2481.339844 687.859375 2470.140625 683.460938 2466.039062 674.578125 L 2366.800781 445.460938 C 2364.730469 442.421875 2363.667969 438.8125 2363.761719 435.140625 Z M 2363.761719 435.140625 "/>
<path style=" stroke:none;fill-rule:nonzero;fill:rgb(37.647059%,37.647059%,37.647059%);fill-opacity:1;" d="M 2657.640625 312.5 C 2657.761719 303.222656 2662.320312 294.570312 2669.898438 289.21875 C 2678.578125 282.609375 2689.277344 279.199219 2700.179688 279.558594 C 2710.246094 279.289062 2720.0625 282.726562 2727.761719 289.21875 C 2735.039062 294.695312 2739.320312 303.273438 2739.320312 312.378906 C 2739.320312 321.488281 2735.039062 330.066406 2727.761719 335.539062 C 2720.148438 342.21875 2710.304688 345.789062 2700.179688 345.539062 C 2689.222656 345.886719 2678.496094 342.34375 2669.898438 335.539062 C 2662.390625 330.238281 2657.839844 321.691406 2657.640625 312.5 Z M 2664.539062 658.101562 L 2664.539062 430.101562 C 2664.601562 423.117188 2668.425781 416.710938 2674.539062 413.339844 C 2682.3125 408.78125 2691.234375 406.554688 2700.238281 406.921875 C 2709.292969 406.578125 2718.261719 408.789062 2726.121094 413.300781 C 2732.347656 416.59375 2736.285156 423.015625 2736.398438 430.058594 L 2736.398438 658.058594 C 2735.730469 664.945312 2731.652344 671.039062 2725.539062 674.28125 C 2710.160156 684.21875 2690.410156 684.328125 2674.921875 674.558594 C 2668.894531 671.1875 2664.988281 664.992188 2664.539062 658.101562 Z M 2664.539062 658.101562 "/>
<path style=" stroke:none;fill-rule:nonzero;fill:rgb(37.647059%,37.647059%,37.647059%);fill-opacity:1;" d="M 2777.941406 568.238281 L 2777.941406 519.019531 C 2777.785156 487.722656 2791.316406 457.921875 2814.980469 437.441406 C 2839.292969 414.824219 2871.464844 402.574219 2904.660156 403.300781 C 2935.644531 402.640625 2965.726562 413.753906 2988.839844 434.398438 C 3011.613281 453.917969 3024.441406 482.613281 3023.800781 512.601562 C 3024.097656 522.230469 3022.625 531.835938 3019.460938 540.941406 C 3017.167969 547.679688 3012.40625 553.304688 3006.140625 556.679688 C 3000.996094 559.464844 2995.441406 561.40625 2989.679688 562.421875 C 2983.164062 563.285156 2976.59375 563.671875 2970.019531 563.578125 L 2852.621094 563.578125 L 2852.621094 572.21875 C 2852.117188 587.796875 2858.96875 602.703125 2871.121094 612.460938 C 2885.164062 623.253906 2902.589844 628.695312 2920.28125 627.820312 C 2935.445312 627.707031 2950.355469 623.925781 2963.738281 616.800781 C 2972.292969 611.550781 2981.695312 607.824219 2991.519531 605.78125 C 2999.75 605.851562 3007.378906 610.113281 3011.761719 617.078125 C 3016.691406 623.265625 3019.53125 630.855469 3019.878906 638.761719 C 3019.878906 649.574219 3010.21875 660.28125 2990.898438 670.878906 C 2968.472656 682.183594 2943.558594 687.644531 2918.460938 686.761719 C 2881.988281 688.347656 2846.160156 676.761719 2817.519531 654.121094 C 2791.671875 633.21875 2777.039062 601.46875 2777.941406 568.238281 Z M 2852.601562 519.601562 L 2936.878906 519.601562 C 2941.414062 520.019531 2945.96875 518.992188 2949.878906 516.660156 C 2952.792969 513.527344 2954.167969 509.265625 2953.640625 505.019531 C 2953.964844 493.035156 2948.59375 481.601562 2939.160156 474.199219 C 2917.914062 458.515625 2888.925781 458.515625 2867.679688 474.199219 C 2857.96875 481.292969 2852.355469 492.699219 2852.660156 504.71875 Z M 2852.601562 519.601562 "/>
<path style=" stroke:none;fill-rule:nonzero;fill:rgb(37.647059%,37.647059%,37.647059%);fill-opacity:1;" d="M 3037.71875 434.578125 C 3038.585938 424.867188 3044.863281 416.472656 3053.941406 412.898438 C 3063.777344 407.175781 3074.921875 404.082031 3086.300781 403.921875 C 3095.378906 402.664062 3104.171875 407.65625 3107.738281 416.101562 L 3165.738281 580.300781 L 3209.199219 437.398438 C 3212.425781 427.386719 3220.90625 422.378906 3234.640625 422.378906 C 3248.640625 422.378906 3257 427.199219 3260.101562 437.398438 L 3302.738281 580.839844 L 3361.179688 415.960938 C 3364.726562 407.519531 3373.511719 402.519531 3382.578125 403.78125 C 3393.820312 404.015625 3404.796875 407.214844 3414.398438 413.058594 C 3423.488281 416.785156 3429.734375 425.273438 3430.578125 435.058594 C 3430.714844 438.675781 3429.929688 442.269531 3428.300781 445.5 L 3339.199219 674.761719 C 3335.71875 683.640625 3325.859375 688.039062 3309.699219 688.039062 C 3292.699219 688.039062 3282.5 683.640625 3279.039062 674.761719 L 3234.460938 548.621094 L 3190.460938 674.179688 C 3186.980469 683.460938 3176.359375 688.039062 3158.640625 688.039062 C 3142.800781 688.039062 3133.179688 683.21875 3129.660156 674.179688 L 3040.601562 445.640625 C 3038.789062 442.230469 3037.804688 438.441406 3037.71875 434.578125 Z M 3037.71875 434.578125 "/>
<path style=" stroke:none;fill-rule:nonzero;fill:rgb(37.647059%,37.647059%,37.647059%);fill-opacity:1;" d="M 3473.019531 667.160156 L 3473.019531 273.160156 C 3472.820312 268.929688 3474.785156 264.890625 3478.238281 262.441406 C 3481.769531 259.914062 3486.019531 258.597656 3490.359375 258.679688 L 3585.261719 258.679688 C 3600.773438 258.457031 3616.273438 259.800781 3631.519531 262.679688 C 3644.523438 265.324219 3656.964844 270.226562 3668.28125 277.160156 C 3679.886719 284.347656 3688.96875 294.964844 3694.28125 307.539062 C 3700.71875 323.210938 3703.78125 340.066406 3703.261719 357 C 3703.894531 378.039062 3699.335938 398.90625 3689.980469 417.761719 C 3682.363281 433.109375 3669.691406 445.371094 3654.101562 452.480469 C 3672.089844 459.167969 3687.550781 471.289062 3698.339844 487.160156 C 3709.652344 506.8125 3714.992188 529.339844 3713.699219 551.980469 L 3713.699219 562.421875 C 3713.699219 604.046875 3703.285156 634.328125 3682.460938 653.261719 C 3659.335938 673.007812 3629.527344 683.152344 3599.160156 681.601562 L 3490.199219 681.601562 C 3485.5625 681.867188 3481.003906 680.308594 3477.5 677.261719 C 3474.628906 674.691406 3473 671.011719 3473.019531 667.160156 Z M 3510.5 435.921875 L 3586.28125 435.921875 C 3607.65625 437.757812 3628.960938 431.6875 3646.160156 418.859375 C 3660.273438 403.191406 3667.097656 382.277344 3664.941406 361.300781 C 3667.136719 341.46875 3659.332031 321.847656 3644.121094 308.941406 C 3626.101562 297.976562 3605.175781 292.753906 3584.121094 293.960938 L 3510.519531 293.960938 Z M 3510.5 646.539062 L 3594.378906 646.539062 C 3648.378906 646.539062 3675.375 618 3675.359375 560.921875 L 3675.359375 551.261719 C 3675.359375 496.59375 3648.367188 469.226562 3594.378906 469.160156 L 3510.5 469.160156 Z M 3510.5 646.539062 "/>
<path style=" stroke:none;fill-rule:nonzero;fill:rgb(37.647059%,37.647059%,37.647059%);fill-opacity:1;" d="M 3770.800781 319.699219 C 3765.980469 315.351562 3763.238281 309.152344 3763.261719 302.660156 C 3763.195312 296.226562 3765.953125 290.089844 3770.800781 285.859375 C 3775.820312 281.21875 3782.464844 278.738281 3789.300781 278.960938 C 3795.863281 278.800781 3802.210938 281.289062 3806.921875 285.859375 C 3811.609375 290.179688 3814.238281 296.285156 3814.160156 302.660156 C 3814.207031 309.097656 3811.585938 315.265625 3806.921875 319.699219 C 3802.285156 324.425781 3795.917969 327.042969 3789.300781 326.941406 C 3782.410156 327.121094 3775.738281 324.507812 3770.800781 319.699219 Z M 3770.800781 666.558594 L 3770.800781 421.839844 C 3770.898438 417.988281 3772.8125 414.40625 3775.960938 412.179688 C 3779.824219 409.371094 3784.527344 407.960938 3789.300781 408.179688 C 3794.140625 407.992188 3798.910156 409.398438 3802.878906 412.179688 C 3806.183594 414.304688 3808.238281 417.914062 3808.378906 421.839844 L 3808.378906 666.558594 C 3808.207031 670.761719 3806.058594 674.632812 3802.578125 677 C 3798.867188 680.136719 3794.160156 681.851562 3789.300781 681.839844 C 3784.507812 681.875 3779.867188 680.152344 3776.261719 677 C 3772.929688 674.546875 3770.914062 670.695312 3770.800781 666.558594 Z M 3770.800781 666.558594 "/>
<path style=" stroke:none;fill-rule:nonzero;fill:rgb(37.647059%,37.647059%,37.647059%);fill-opacity:1;" d="M 3874.359375 596.699219 L 3874.359375 292.441406 C 3874.539062 288.449219 3876.71875 284.816406 3880.160156 282.78125 C 3883.871094 280.152344 3888.3125 278.753906 3892.859375 278.78125 C 3897.609375 278.683594 3902.269531 280.082031 3906.179688 282.78125 C 3909.632812 284.800781 3911.820312 288.441406 3911.980469 292.441406 L 3911.980469 408.441406 L 3986.601562 408.441406 C 3990.414062 408.378906 3994.015625 410.175781 3996.261719 413.261719 C 4001.273438 419.871094 4001.273438 429.011719 3996.261719 435.621094 C 3994.023438 438.714844 3990.414062 440.515625 3986.601562 440.441406 L 3911.980469 440.441406 L 3911.980469 596.441406 C 3910.433594 610.605469 3914.699219 624.792969 3923.800781 635.761719 C 3935.957031 644.507812 3950.902344 648.492188 3965.800781 646.960938 L 3981.980469 646.960938 C 3986.628906 646.757812 3991.148438 648.515625 3994.441406 651.800781 C 3997.636719 655.070312 3999.382812 659.488281 3999.28125 664.058594 C 3999.351562 668.714844 3997.617188 673.214844 3994.441406 676.621094 C 3991.292969 680.179688 3986.730469 682.160156 3981.980469 682.019531 L 3965.601562 682.019531 C 3904.773438 681.726562 3874.359375 653.285156 3874.359375 596.699219 Z M 3874.359375 596.699219 "/>
</g>
</svg>
