<?xml version="1.0" encoding="UTF-8"?>
<svg xmlns="http://www.w3.org/2000/svg" xmlns:xlink="http://www.w3.org/1999/xlink" width="10000px" height="2424px" viewBox="0 0 10001 2424" version="1.1">
<g id="surface1">
<path style=" stroke:none;fill-rule:nonzero;fill:rgb(100%,63.137255%,8.627451%);fill-opacity:1;" d="M 1474.097656 1813.992188 C 1528.550781 1759.613281 1616.691406 1759.757812 1670.972656 1814.308594 C 1725.25 1868.859375 1725.109375 1957.164062 1670.65625 2011.542969 L 1428.859375 2253 C 1205.78125 2475.773438 842.015625 2479.003906 615.175781 2260.503906 C 613.867188 2259.25 512.859375 2160.203125 179.648438 1833.441406 C -42.03125 1616.0625 -64.113281 1268.230469 144.488281 1044.859375 L 533.429688 628.375 C 740.46875 406.660156 1122.109375 382.429688 1358.824219 573.875 L 1712.078125 859.582031 C 1771.898438 907.964844 1781.242188 995.773438 1732.949219 1055.703125 C 1684.652344 1115.636719 1597.003906 1124.996094 1537.179688 1076.613281 L 1183.933594 790.90625 C 1060.132812 690.785156 843.574219 704.535156 736.75 818.933594 L 347.804688 1235.425781 C 246.25 1344.167969 257.375 1519.347656 374.40625 1634.109375 C 619.089844 1874.054688 807.667969 2058.972656 807.882812 2059.183594 C 925.816406 2172.777344 1116.507812 2171.082031 1232.296875 2055.449219 Z M 1474.097656 1813.992188 "/>
<path style=" stroke:none;fill-rule:evenodd;fill:rgb(70.196078%,70.196078%,70.196078%);fill-opacity:1;" d="M 886.703125 1572.355469 C 809.820312 1572.355469 747.492188 1509.914062 747.492188 1432.890625 C 747.492188 1355.863281 809.820312 1293.425781 886.703125 1293.425781 L 1913.394531 1293.425781 C 1990.28125 1293.425781 2052.605469 1355.863281 2052.605469 1432.890625 C 2052.605469 1509.914062 1990.28125 1572.355469 1913.394531 1572.355469 Z M 886.703125 1572.355469 "/>
<path style=" stroke:none;fill-rule:evenodd;fill:rgb(0%,0%,0%);fill-opacity:1;" d="M 1078.980469 44.1875 C 1131.507812 -12.0625 1219.605469 -15 1275.75 37.621094 C 1331.894531 90.242188 1334.828125 178.5 1282.300781 234.746094 L 347.8125 1235.429688 C 246.253906 1344.164062 257.378906 1519.339844 374.402344 1634.109375 L 805.964844 2057.324219 C 860.90625 2111.203125 861.847656 2199.503906 808.0625 2254.546875 C 754.28125 2309.589844 666.140625 2310.53125 611.199219 2256.652344 L 179.636719 1833.433594 C -42.027344 1616.046875 -64.113281 1268.214844 144.5 1044.859375 Z M 1078.980469 44.1875 "/>
<path style=" stroke:none;fill-rule:evenodd;fill:rgb(0%,0%,0%);fill-opacity:1;" d="M 2880.507812 849.117188 L 2880.507812 1766.988281 C 2880.507812 1802.246094 2893.019531 1832.386719 2918.039062 1857.410156 C 2943.058594 1882.433594 2973.199219 1894.945312 3008.453125 1894.945312 L 3256.671875 1894.945312 C 3278.28125 1894.945312 3296.761719 1902.621094 3312.113281 1917.976562 C 3327.46875 1933.332031 3335.144531 1951.8125 3335.144531 1973.425781 L 3335.144531 1975.128906 C 3335.144531 1996.742188 3327.46875 2014.9375 3312.113281 2029.726562 C 3296.761719 2045.078125 3278.28125 2052.757812 3256.671875 2052.757812 L 3008.453125 2052.757812 C 2929.410156 2052.757812 2862.027344 2024.890625 2806.296875 1969.160156 C 2750.570312 1913.425781 2722.707031 1846.035156 2722.707031 1766.988281 L 2722.707031 849.117188 C 2722.707031 827.507812 2730.382812 809.023438 2745.738281 793.667969 C 2761.089844 778.882812 2779.289062 771.488281 2800.328125 771.488281 L 2802.886719 771.488281 C 2823.925781 771.488281 2842.125 778.882812 2857.476562 793.667969 C 2872.832031 809.023438 2880.507812 827.507812 2880.507812 849.117188 Z M 3869.109375 1280.753906 C 3783.8125 1280.753906 3711.023438 1310.894531 3650.746094 1371.175781 C 3591.039062 1431.460938 3561.183594 1504.25 3561.183594 1589.554688 C 3561.183594 1604.910156 3562.320312 1619.980469 3564.597656 1634.765625 L 4104.53125 1390.796875 C 4043.117188 1317.433594 3964.644531 1280.753906 3869.109375 1280.753906 Z M 4292.1875 1393.355469 C 4301.285156 1412.691406 4302.136719 1432.597656 4294.746094 1453.070312 C 4287.351562 1472.972656 4273.707031 1487.476562 4253.804688 1496.574219 C 4174.191406 1532.402344 4069.558594 1579.601562 3939.90625 1638.179688 C 3778.976562 1710.972656 3674.628906 1758.171875 3626.863281 1779.785156 C 3688.277344 1858.265625 3769.027344 1897.503906 3869.109375 1897.503906 C 3935.640625 1897.503906 3995.917969 1877.882812 4049.941406 1838.644531 C 4102.257812 1800.539062 4138.933594 1751.066406 4159.976562 1690.214844 C 4172.484375 1654.957031 4197.507812 1637.324219 4235.039062 1637.324219 C 4261.765625 1637.324219 4283.089844 1648.414062 4299.011719 1670.59375 C 4314.363281 1692.203125 4317.492188 1715.804688 4308.394531 1741.398438 C 4276.546875 1833.527344 4220.820312 1908.023438 4141.210938 1964.894531 C 4059.890625 2023.46875 3969.191406 2052.757812 3869.109375 2052.757812 C 3740.59375 2052.757812 3630.84375 2007.261719 3539.859375 1916.269531 C 3448.875 1825.277344 3403.382812 1715.523438 3403.382812 1586.996094 C 3403.382812 1458.472656 3448.875 1348.714844 3539.859375 1257.722656 C 3630.84375 1166.730469 3740.59375 1121.238281 3869.109375 1121.238281 C 3961.800781 1121.238281 4046.527344 1146.542969 4123.296875 1197.15625 C 4198.929688 1246.632812 4255.222656 1312.03125 4292.1875 1393.355469 Z M 4907.183594 1280.753906 C 4821.886719 1280.753906 4749.097656 1310.894531 4688.820312 1371.175781 C 4629.113281 1431.460938 4599.257812 1504.25 4599.257812 1589.554688 C 4599.257812 1604.910156 4600.394531 1619.980469 4602.671875 1634.765625 L 5142.605469 1390.796875 C 5081.191406 1317.433594 5002.71875 1280.753906 4907.183594 1280.753906 Z M 5330.261719 1393.355469 C 5339.359375 1412.691406 5340.210938 1432.597656 5332.820312 1453.070312 C 5325.429688 1472.972656 5311.78125 1487.476562 5291.878906 1496.574219 C 5212.265625 1532.402344 5107.632812 1579.601562 4977.980469 1638.179688 C 4817.050781 1710.972656 4712.707031 1758.171875 4664.9375 1779.785156 C 4726.351562 1858.265625 4807.101562 1897.503906 4907.183594 1897.503906 C 4973.71875 1897.503906 5033.992188 1877.882812 5088.015625 1838.644531 C 5140.332031 1800.539062 5177.007812 1751.066406 5198.050781 1690.214844 C 5210.558594 1654.957031 5235.582031 1637.324219 5273.113281 1637.324219 C 5299.839844 1637.324219 5321.164062 1648.414062 5337.085938 1670.59375 C 5352.4375 1692.203125 5355.566406 1715.804688 5346.46875 1741.398438 C 5314.625 1833.527344 5258.894531 1908.023438 5179.285156 1964.894531 C 5097.964844 2023.46875 5007.265625 2052.757812 4907.183594 2052.757812 C 4778.667969 2052.757812 4668.917969 2007.261719 4577.933594 1916.269531 C 4486.949219 1825.277344 4441.457031 1715.523438 4441.457031 1586.996094 C 4441.457031 1458.472656 4486.949219 1348.714844 4577.933594 1257.722656 C 4668.917969 1166.730469 4778.667969 1121.238281 4907.183594 1121.238281 C 4999.875 1121.238281 5084.601562 1146.542969 5161.371094 1197.15625 C 5237.003906 1246.632812 5293.300781 1312.03125 5330.261719 1393.355469 Z M 5585.300781 771.488281 C 5606.34375 771.488281 5624.539062 778.882812 5639.890625 793.667969 C 5655.246094 809.023438 5662.921875 827.507812 5662.921875 849.117188 L 5662.921875 1121.238281 L 5816.460938 1121.238281 C 5837.5 1121.238281 5855.695312 1128.914062 5871.050781 1144.269531 C 5886.402344 1159.625 5894.078125 1178.105469 5894.078125 1199.714844 L 5894.078125 1201.421875 C 5894.078125 1223.03125 5886.402344 1241.230469 5871.050781 1256.015625 C 5855.695312 1271.371094 5837.5 1279.050781 5816.460938 1279.050781 L 5662.921875 1279.050781 L 5662.921875 1810.492188 C 5662.921875 1833.808594 5671.167969 1853.714844 5687.660156 1870.207031 C 5704.148438 1886.699219 5724.335938 1894.945312 5748.222656 1894.945312 L 5816.460938 1894.945312 C 5837.5 1894.945312 5855.695312 1902.621094 5871.050781 1917.976562 C 5886.402344 1933.332031 5894.078125 1951.8125 5894.078125 1973.425781 L 5894.078125 1975.128906 C 5894.078125 1996.742188 5886.402344 2014.9375 5871.050781 2029.726562 C 5855.695312 2045.078125 5837.5 2052.757812 5816.460938 2052.757812 L 5748.222656 2052.757812 C 5681.121094 2052.757812 5623.6875 2029.15625 5575.917969 1981.953125 C 5528.722656 1934.183594 5505.121094 1877.03125 5505.121094 1810.492188 L 5505.121094 849.117188 C 5505.121094 827.507812 5512.796875 809.023438 5528.152344 793.667969 C 5543.507812 778.882812 5561.703125 771.488281 5582.742188 771.488281 Z M 6632.757812 771.488281 C 6686.78125 771.488281 6739.949219 778.03125 6792.265625 791.109375 C 6831.503906 801.347656 6851.121094 826.367188 6851.121094 866.175781 L 6851.121094 868.738281 C 6851.121094 893.757812 6840.886719 914.230469 6820.414062 930.15625 C 6800.511719 945.511719 6778.335938 950.058594 6753.882812 943.804688 C 6714.078125 933.566406 6673.703125 928.449219 6632.757812 928.449219 C 6499.695312 928.449219 6385.964844 975.652344 6291.566406 1070.054688 C 6197.171875 1164.457031 6149.972656 1278.480469 6149.972656 1412.125 C 6149.972656 1545.765625 6197.171875 1659.789062 6291.566406 1754.191406 C 6385.964844 1848.027344 6499.695312 1894.945312 6632.757812 1894.945312 C 6673.703125 1894.945312 6714.078125 1890.109375 6753.882812 1880.441406 C 6778.335938 1874.1875 6800.511719 1878.738281 6820.414062 1894.089844 C 6840.886719 1909.445312 6851.121094 1929.917969 6851.121094 1955.511719 L 6851.121094 1957.214844 C 6851.121094 1997.59375 6831.503906 2022.898438 6792.265625 2033.136719 C 6739.949219 2046.21875 6686.78125 2052.757812 6632.757812 2052.757812 C 6455.90625 2052.757812 6304.933594 1990.199219 6179.828125 1865.085938 C 6054.722656 1739.972656 5992.171875 1588.988281 5992.171875 1412.125 C 5992.171875 1235.257812 6054.722656 1084.273438 6179.828125 959.160156 C 6304.933594 834.046875 6455.90625 771.488281 6632.757812 771.488281 Z M 7427.734375 1280.753906 C 7342.4375 1280.753906 7269.648438 1310.894531 7209.371094 1371.175781 C 7149.664062 1431.460938 7119.808594 1504.25 7119.808594 1589.554688 C 7119.808594 1674.292969 7149.664062 1746.800781 7209.371094 1807.082031 C 7269.648438 1867.363281 7342.4375 1897.503906 7427.734375 1897.503906 C 7513.035156 1897.503906 7585.535156 1867.363281 7645.246094 1807.082031 C 7705.523438 1746.800781 7735.660156 1674.292969 7735.660156 1589.554688 C 7735.660156 1504.25 7705.523438 1431.460938 7645.246094 1371.175781 C 7585.535156 1310.894531 7513.035156 1280.753906 7427.734375 1280.753906 Z M 7427.734375 1121.238281 C 7556.25 1121.238281 7666 1166.730469 7756.984375 1257.722656 C 7847.96875 1348.714844 7893.460938 1458.472656 7893.460938 1586.996094 C 7893.460938 1715.523438 7847.96875 1825.277344 7756.984375 1916.269531 C 7666 2007.261719 7556.25 2052.757812 7427.734375 2052.757812 C 7299.21875 2052.757812 7189.46875 2007.261719 7098.484375 1916.269531 C 7007.5 1825.277344 6962.007812 1715.523438 6962.007812 1586.996094 C 6962.007812 1458.472656 7007.5 1348.714844 7098.484375 1257.722656 C 7189.46875 1166.730469 7299.21875 1121.238281 7427.734375 1121.238281 Z M 8478.605469 1280.753906 C 8393.304688 1280.753906 8320.519531 1310.894531 8260.242188 1371.175781 C 8200.53125 1431.460938 8170.679688 1504.25 8170.679688 1589.554688 C 8170.679688 1674.292969 8200.53125 1746.800781 8260.242188 1807.082031 C 8320.519531 1867.363281 8393.304688 1897.503906 8478.605469 1897.503906 C 8563.902344 1897.503906 8636.40625 1867.363281 8696.113281 1807.082031 C 8756.390625 1746.800781 8786.53125 1674.292969 8786.53125 1589.554688 C 8786.53125 1504.25 8756.390625 1431.460938 8696.113281 1371.175781 C 8636.40625 1310.894531 8563.902344 1280.753906 8478.605469 1280.753906 Z M 8866.710938 771.488281 C 8887.75 771.488281 8905.945312 778.882812 8921.300781 793.667969 C 8936.652344 809.023438 8944.332031 827.507812 8944.332031 849.117188 L 8944.332031 1589.554688 C 8943.761719 1717.511719 8897.984375 1826.699219 8807 1917.125 C 8716.015625 2007.546875 8606.550781 2052.757812 8478.605469 2052.757812 C 8350.089844 2052.757812 8240.339844 2007.261719 8149.355469 1916.269531 C 8058.371094 1825.277344 8012.878906 1715.523438 8012.878906 1586.996094 C 8012.878906 1458.472656 8058.371094 1348.714844 8149.355469 1257.722656 C 8240.339844 1166.730469 8350.089844 1121.238281 8478.605469 1121.238281 C 8595.746094 1121.238281 8698.386719 1160.191406 8786.53125 1238.101562 L 8786.53125 849.117188 C 8786.53125 827.507812 8794.207031 809.023438 8809.558594 793.667969 C 8824.914062 778.882812 8843.109375 771.488281 8864.152344 771.488281 Z M 9555.0625 1280.753906 C 9469.765625 1280.753906 9396.976562 1310.894531 9336.699219 1371.175781 C 9276.992188 1431.460938 9247.136719 1504.25 9247.136719 1589.554688 C 9247.136719 1604.910156 9248.273438 1619.980469 9250.550781 1634.765625 L 9790.484375 1390.796875 C 9729.070312 1317.433594 9650.597656 1280.753906 9555.0625 1280.753906 Z M 9978.140625 1393.355469 C 9987.238281 1412.691406 9988.089844 1432.597656 9980.699219 1453.070312 C 9973.304688 1472.972656 9959.660156 1487.476562 9939.757812 1496.574219 C 9860.144531 1532.402344 9755.511719 1579.601562 9625.859375 1638.179688 C 9464.929688 1710.972656 9360.585938 1758.171875 9312.816406 1779.785156 C 9374.230469 1858.265625 9454.980469 1897.503906 9555.0625 1897.503906 C 9621.59375 1897.503906 9681.871094 1877.882812 9735.894531 1838.644531 C 9788.210938 1800.539062 9824.886719 1751.066406 9845.929688 1690.214844 C 9858.4375 1654.957031 9883.460938 1637.324219 9920.992188 1637.324219 C 9947.71875 1637.324219 9969.042969 1648.414062 9984.964844 1670.59375 C 10000.316406 1692.203125 10003.445312 1715.804688 9994.347656 1741.398438 C 9962.503906 1833.527344 9906.773438 1908.023438 9827.164062 1964.894531 C 9745.84375 2023.46875 9655.144531 2052.757812 9555.0625 2052.757812 C 9426.546875 2052.757812 9316.796875 2007.261719 9225.8125 1916.269531 C 9134.828125 1825.277344 9089.335938 1715.523438 9089.335938 1586.996094 C 9089.335938 1458.472656 9134.828125 1348.714844 9225.8125 1257.722656 C 9316.796875 1166.730469 9426.546875 1121.238281 9555.0625 1121.238281 C 9647.753906 1121.238281 9732.480469 1146.542969 9809.25 1197.15625 C 9884.882812 1246.632812 9941.175781 1312.03125 9978.140625 1393.355469 Z M 9978.140625 1393.355469 "/>
</g>
</svg>
