<?xml version="1.0" encoding="utf-8"?>
<!-- Svg Vector Icons : http://www.onlinewebfonts.com/icon -->
<!DOCTYPE svg PUBLIC "-//W3C//DTD SVG 1.1//EN" "http://www.w3.org/Graphics/SVG/1.1/DTD/svg11.dtd">
<svg version="1.1" xmlns="http://www.w3.org/2000/svg" xmlns:xlink="http://www.w3.org/1999/xlink" x="0px" y="0px" viewBox="0 0 1000 1000" enable-background="new 0 0 1000 1000" xml:space="preserve">
<metadata> Svg Vector Icons : http://www.onlinewebfonts.com/icon </metadata>
<g><path d="M500.5,10C229.6,10,10,229.6,10,500c0,270.9,219.6,490,490,490c270.4,0,490-219.6,490-490C990.5,229.6,770.9,10,500.5,10z M500.5,961.1C245.7,961.1,39.3,754.8,39.3,500c0-254.3,206.4-460.7,461.1-460.7c254.8,0,460.7,206.4,460.7,460.7C961.1,754.8,754.8,961.1,500.5,961.1z"/><path d="M274.1,519.6L621.3,769v-51.3L313.2,500l308.1-217.1v-51.3L274.1,480.9V519.6z"/></g>
</svg>